<?xml version="1.0" encoding="UTF-8" standalone="no"?>
<svg width="14px" height="12px" viewBox="0 0 14 12" version="1.1" xmlns="http://www.w3.org/2000/svg" xmlns:xlink="http://www.w3.org/1999/xlink">
    <!-- Generator: Sketch 39 (31667) - http://www.bohemiancoding.com/sketch -->
    <title>Fill 1</title>
    <desc>Created with Sketch.</desc>
    <defs></defs>
    <g id="Internal" stroke="none" stroke-width="1" fill="" fill-rule="evenodd">
        <g id="Kitchen-Sink" transform="translate(-435.000000, -2122.000000)" fill="">
            <g id="Group-9" transform="translate(434.000000, 1868.000000)">
                <g id="Group-8" transform="translate(1.000000, 244.000000)">
                    <g id="Page-1" transform="translate(0.000000, 10.000000)">
                        <path d="M13.2489277,5.36752219 L8.0192061,0.234974451 C7.69994794,-0.078271353 7.18253236,-0.078271353 6.86368277,0.234974451 C6.54450632,0.548220255 6.54450632,1.05570091 6.86368277,1.36902691 L10.6982127,5.13254774 L0.817144003,5.13254774 C0.36583537,5.13254774 0,5.49158549 0,5.93450832 C0,6.37751135 0.36583537,6.73646891 0.817144003,6.73646891 L10.6982127,6.73646891 L6.86368277,10.5000699 C6.54450632,10.8133157 6.54450632,11.3207964 6.86368277,11.6341224 C7.02327099,11.7907453 7.23237814,11.8690166 7.44140358,11.8690166 C7.65051073,11.8690166 7.85994474,11.7907453 8.0192061,11.6341224 L13.2489277,6.50157465 C13.5681042,6.18824865 13.5681042,5.68076799 13.2489277,5.36752219" id="Fill-1"></path>
                    </g>
                </g>
            </g>
        </g>
    </g>
</svg>
