<?xml version="1.0" encoding="UTF-8" standalone="no"?>
<svg width="14px" height="12px" viewBox="0 0 14 12" version="1.1" xmlns="http://www.w3.org/2000/svg" xmlns:xlink="http://www.w3.org/1999/xlink">
    <!-- Generator: Sketch 3.8.3 (29802) - http://www.bohemiancoding.com/sketch -->
    <title>barcode</title>
    <desc>Created with Sketch.</desc>
    <defs></defs>
    <g id="homepage" stroke="none" stroke-width="1" fill="" fill-rule="evenodd">
        <g id="Orignial_Frankenstein-Option-C-Copy-2" transform="translate(-845.000000, -13.000000)" fill="">
            <g id="Group-16" transform="translate(-54.000000, -11.000000)">
                <g id="Group-30" transform="translate(890.000000, 19.000000)">
                    <g id="Group-29" transform="translate(0.000000, 1.000000)">
                        <g id="barcode" transform="translate(9.000000, 4.000000)">
                            <polygon id="Fill-1" points="0.0525 11.375875 1.40175 11.375875 1.40175 0.175 0.0525 0.175"></polygon>
                            <polygon id="Fill-3" points="4.200875 11.375875 6.299125 11.375875 6.299125 0.175 4.200875 0.175"></polygon>
                            <polygon id="Fill-4" points="10.5 11.375875 11.200875 11.375875 11.200875 0.175 10.5 0.175"></polygon>
                            <polygon id="Fill-5" points="2.799125 11.375875 3.5 11.375875 3.5 0.175 2.799125 0.175"></polygon>
                            <polygon id="Fill-6" points="12.59825 11.375875 14 11.375875 14 0.175 12.59825 0.175"></polygon>
                            <polygon id="Fill-7" points="7.700875 11.375875 9.099125 11.375875 9.099125 0.175 7.700875 0.175"></polygon>
                        </g>
                    </g>
                </g>
            </g>
        </g>
    </g>
</svg>
