<?xml version="1.0" encoding="UTF-8" standalone="no"?>
<svg width="14px" height="18px" viewBox="0 0 14 18" version="1.1" xmlns="http://www.w3.org/2000/svg" xmlns:xlink="http://www.w3.org/1999/xlink">
    <!-- Generator: Sketch 39.1 (31720) - http://www.bohemiancoding.com/sketch -->
    <title>Shape</title>
    <desc>Created with Sketch.</desc>
    <defs></defs>
    <g id="Internal" stroke="none" stroke-width="1" fill="none" fill-rule="evenodd">
        <g id="Specific-Partner-Page" transform="translate(-1167.000000, -135.000000)" fill="">
            <path d="M1178.88,135 L1168.98,135 C1167.891,135 1167,135.891 1167,136.98 L1167,150.841 C1167,151.931 1167.892,152.821 1168.98,152.821 L1178.88,152.821 C1179.97,152.821 1180.86,151.93 1180.86,150.841 L1180.86,136.98 C1180.861,135.891 1179.97,135 1178.88,135 L1178.88,135 Z M1169.782,139.128 L1178.075,139.128 L1178.075,140.86 L1169.782,140.86 L1169.782,139.128 L1169.782,139.128 Z M1178.075,148.633 L1169.782,148.633 L1169.782,146.901 L1178.075,146.901 L1178.075,148.633 L1178.075,148.633 Z M1178.1,144.772 L1169.808,144.772 L1169.808,142.99 L1178.1,142.99 L1178.1,144.772 L1178.1,144.772 Z" id="Shape"></path>
        </g>
    </g>
</svg>
