<?xml version="1.0" encoding="UTF-8" standalone="no"?>
<svg width="14px" height="14px" viewBox="0 0 14 14" version="1.1" xmlns="http://www.w3.org/2000/svg" xmlns:xlink="http://www.w3.org/1999/xlink">
    <!-- Generator: Sketch 3.8.3 (29802) - http://www.bohemiancoding.com/sketch -->
    <title>Fill 1</title>
    <desc>Created with Sketch.</desc>
    <defs></defs>
    <g id="homepage" stroke="none" stroke-width="1" fill="" fill-rule="evenodd">
        <g id="Orignial_Frankenstein-Option-C-Copy-2" transform="translate(-1056.000000, -12.000000)" fill="">
            <g id="Group-16" transform="translate(-54.000000, -11.000000)">
                <g id="Group-30" transform="translate(890.000000, 19.000000)">
                    <g id="Group-36" transform="translate(201.000000, 1.000000)">
                        <g id="interface" transform="translate(19.000000, 3.000000)">
                            <path d="M4.200875,11.200875 C3.43175,11.200875 2.799125,11.83 2.799125,12.59825 C2.799125,13.370875 3.43175,14 4.200875,14 C4.97,14 5.59825,13.370875 5.59825,12.59825 C5.59825,11.83 4.97,11.200875 4.200875,11.200875 L4.200875,11.200875 Z M0,0 L0,1.40175 L1.40175,1.40175 L3.92,6.72 L2.939125,8.40175 C2.870875,8.61 2.799125,8.89 2.799125,9.09825 C2.799125,9.870875 3.43175,10.5 4.200875,10.5 L12.59825,10.5 L12.59825,9.09825 L4.480875,9.09825 C4.409125,9.09825 4.340875,9.03 4.340875,8.95825 L4.340875,8.89 L4.97,7.700875 L10.15175,7.700875 C10.70825,7.700875 11.129125,7.42 11.340875,7 L13.86,2.450875 C14,2.310875 14,2.239125 14,2.09825 C14,1.68175 13.72,1.40175 13.299125,1.40175 L2.939125,1.40175 L2.310875,0 L0,0 Z M11.200875,11.200875 C10.43175,11.200875 9.799125,11.83 9.799125,12.59825 C9.799125,13.370875 10.43175,14 11.200875,14 C11.97,14 12.59825,13.370875 12.59825,12.59825 C12.59825,11.83 11.97,11.200875 11.200875,11.200875 L11.200875,11.200875 Z" id="Fill-1"></path>
                        </g>
                    </g>
                </g>
            </g>
        </g>
    </g>
</svg>
