<?xml version="1.0" encoding="UTF-8" standalone="no"?>
<svg width="19px" height="16px" viewBox="0 0 19 16" version="1.1" xmlns="http://www.w3.org/2000/svg" xmlns:xlink="http://www.w3.org/1999/xlink">
    <!-- Generator: Sketch 3.8.3 (29802) - http://www.bohemiancoding.com/sketch -->
    <title>Shape</title>
    <desc>Created with Sketch.</desc>
    <defs></defs>
    <g id="homepage" stroke="none" stroke-width="1" fill="" fill-rule="evenodd">
        <g id="Orignial_Frankenstein-Option-C-Copy-2" transform="translate(-1148.000000, -10.000000)" fill="">
            <g id="Group-16" transform="translate(-54.000000, -11.000000)">
                <g id="Group-30" transform="translate(890.000000, 19.000000)">
                    <g id="paperplane" transform="translate(311.789062, 0.000000)">
                        <path d="M18.591,2.808 C18.251,2.928 1.442,8.851 1.111,8.968 C0.83,9.067 0.768,9.31 1.101,9.444 C1.498,9.603 4.859,10.95 4.859,10.95 L4.859,10.95 L7.088,11.843 C7.088,11.843 17.818,3.963 17.964,3.857 C18.11,3.75 18.278,3.951 18.172,4.066 C18.066,4.182 10.379,12.495 10.379,12.495 L10.379,12.496 L9.931,12.994 L10.524,13.313 C10.524,13.313 15.128,15.792 15.457,15.968 C15.744,16.122 16.118,15.994 16.201,15.636 C16.299,15.214 19.017,3.496 19.078,3.236 C19.155,2.895 18.932,2.688 18.591,2.808 L18.591,2.808 Z M7.067,17.191 C7.067,17.436 7.204,17.503 7.395,17.331 C7.643,17.105 10.216,14.797 10.216,14.797 L7.068,13.168 L7.068,17.191 L7.067,17.191 Z" id="Shape"></path>
                    </g>
                </g>
            </g>
        </g>
    </g>
</svg>
