<?xml version="1.0" encoding="UTF-8" standalone="no"?>
<svg width="21px" height="21px" viewBox="0 0 21 21" version="1.1" xmlns="http://www.w3.org/2000/svg" xmlns:xlink="http://www.w3.org/1999/xlink">
    <!-- Generator: Sketch 3.8.3 (29802) - http://www.bohemiancoding.com/sketch -->
    <title>Group 18</title>
    <desc>Created with Sketch.</desc>
    <defs></defs>
    <g id="Internal" stroke="none" stroke-width="1" fill="none" fill-rule="evenodd">
        <g id="Kitchen-Sink" transform="translate(-1308.000000, -1683.000000)" fill="#FFFFFF">
            <g id="Group-2" transform="translate(432.000000, 1377.000000)">
                <g id="Group-6" transform="translate(0.000000, 290.000000)">
                    <g id="Group-18" transform="translate(876.000000, 16.000000)">
                        <path d="M19.4207815,9 L1.05921809,9 C0.0838101853,9 0,9.78995558 0,10.7653635 C0,11.7407714 0.0838101853,12.530727 1.05921809,12.530727 L19.4207815,12.530727 C20.3961894,12.530727 20.4799995,11.7407714 20.4799995,10.7653635 C20.4799995,9.78995558 20.3961894,9 19.4207815,9 L19.4207815,9 Z" id="Shape"></path>
                        <path d="M19.4207815,9 L1.05921809,9 C0.0838101853,9 0,9.78995558 0,10.7653635 C0,11.7407714 0.0838101853,12.530727 1.05921809,12.530727 L19.4207815,12.530727 C20.3961894,12.530727 20.4799995,11.7407714 20.4799995,10.7653635 C20.4799995,9.78995558 20.3961894,9 19.4207815,9 L19.4207815,9 Z" id="Shape" transform="translate(10.240000, 10.765363) rotate(90.000000) translate(-10.240000, -10.765363) "></path>
                    </g>
                </g>
            </g>
        </g>
    </g>
</svg>