<?xml version="1.0" encoding="UTF-8" standalone="no"?>
<svg width="25px" height="26px" viewBox="0 0 25 26" version="1.1" xmlns="http://www.w3.org/2000/svg" xmlns:xlink="http://www.w3.org/1999/xlink">
    <!-- Generator: Sketch 3.8.3 (29802) - http://www.bohemiancoding.com/sketch -->
    <title>Shape</title>
    <desc>Created with Sketch.</desc>
    <defs></defs>
    <g id="homepage" stroke="none" stroke-width="1" fill="" fill-rule="evenodd">
        <g id="Orignial_Frankenstein-Option-C-Copy-2" transform="translate(-1381.000000, -68.000000)" fill="">
            <path d="M1405.44463,89.8365657 L1399.46581,83.8577509 C1400.36559,82.3762322 1400.8866,80.6358073 1400.8866,78.7755185 C1400.8866,73.3688543 1396.20072,68.6845703 1390.79565,68.6845703 C1385.39058,68.6845703 1381.00676,73.0683953 1381.00676,78.4750595 C1381.00676,83.8817237 1385.69264,88.5644095 1391.09611,88.5644095 C1392.89407,88.5644095 1394.57856,88.0769626 1396.02492,87.2331203 L1402.03729,93.2454971 C1402.62542,93.8336296 1403.57954,93.8336296 1404.16767,93.2454971 L1405.66038,91.7543893 C1406.24532,91.1646585 1406.03276,90.4246983 1405.44463,89.8365657 L1405.44463,89.8365657 Z M1384.01614,78.4734613 C1384.01614,74.730509 1387.0495,71.6955533 1390.79245,71.6955533 C1394.537,71.6955533 1397.87242,75.030968 1397.87242,78.7755185 C1397.87242,82.5184708 1394.83906,85.5518283 1391.09451,85.5518283 C1387.35156,85.5518283 1384.01614,82.2164136 1384.01614,78.4734613 L1384.01614,78.4734613 Z" id="Shape"></path>
        </g>
    </g>
</svg>
