<?xml version="1.0" encoding="UTF-8" standalone="no"?>
<svg width="20px" height="19px" viewBox="0 0 20 19" version="1.1" xmlns="http://www.w3.org/2000/svg" xmlns:xlink="http://www.w3.org/1999/xlink">
    <!-- Generator: Sketch 3.8.3 (29802) - http://www.bohemiancoding.com/sketch -->
    <title>Shape</title>
    <desc>Created with Sketch.</desc>
    <defs></defs>
    <g id="homepage" stroke="none" stroke-width="1" fill="" fill-rule="evenodd">
        <g id="Orignial_Frankenstein-Option-C-Copy-2" transform="translate(-1270.000000, -9.000000)" fill="">
            <g id="Group-16" transform="translate(-54.000000, -11.000000)">
                <g id="Group-30" transform="translate(890.000000, 19.000000)">
                    <g id="user" transform="translate(434.246094, 0.156250)">
                        <path d="M15.083,14.504 C12.642,13.614 11.861,12.864 11.861,11.257 C11.861,10.293 12.607,10.608 12.934,8.841 C13.07,8.109 13.728,8.829 13.854,7.156 C13.854,6.49 13.495,6.324 13.495,6.324 C13.495,6.324 13.678,5.338 13.749,4.578 C13.838,3.632 13.203,1.188 9.815,1.188 C6.427,1.188 5.792,3.632 5.88,4.578 C5.952,5.337 6.134,6.324 6.134,6.324 C6.134,6.324 5.775,6.49 5.775,7.156 C5.901,8.829 6.559,8.108 6.695,8.841 C7.023,10.608 7.767,10.293 7.767,11.257 C7.767,12.863 6.988,13.614 4.547,14.504 C2.098,15.396 0.507,16.306 0.507,16.926 L0.507,19.011 L9.815,19.011 L19.122,19.011 L19.122,16.926 C19.122,16.306 17.531,15.396 15.083,14.504 L15.083,14.504 Z" id="Shape"></path>
                    </g>
                </g>
            </g>
        </g>
    </g>
</svg>
