<?xml version="1.0" encoding="UTF-8" standalone="no"?>
<svg width="268px" height="72px" viewBox="0 0 268 72" version="1.1" xmlns="http://www.w3.org/2000/svg" xmlns:xlink="http://www.w3.org/1999/xlink">
    <!-- Generator: Sketch 3.8.3 (29802) - http://www.bohemiancoding.com/sketch -->
    <title>Page 1</title>
    <desc>Created with Sketch.</desc>
    <defs>
        <polygon id="path-1" points="9.9475983e-13 71.436189 267.346354 71.436189 267.346354 -1.20792265e-13 9.9475983e-13 -1.20792265e-13"></polygon>
    </defs>
    <g id="Internal" stroke="none" stroke-width="1" fill="none" fill-rule="evenodd">
        <g id="Kitchen-Sink" transform="translate(-69.000000, -42.000000)">
            <g id="Page-1" transform="translate(69.692500, 42.077567)">
                <path d="M81.0550146,37.1564607 L82.0336915,32.1305582 L85.3925433,32.1305582 C86.1577469,32.1305582 87.1364237,32.1305582 87.7933438,32.4956283 C88.5265779,32.8998868 88.8880387,33.7496547 88.7049879,34.6834712 C88.5570004,35.456925 88.0088795,36.180362 87.3168963,36.6274183 C86.5135356,37.1935865 85.5920944,37.1564607 84.7418109,37.1564607 L81.0550146,37.1564607 L81.0550146,37.1564607 Z M72.027778,43.3487315 L84.7521236,43.3487315 C87.2622389,43.3487315 90.2678802,43.3105744 92.7145722,41.7708858 C94.9756354,40.3544341 96.348258,37.6798311 96.8128458,35.2862495 C97.4527499,31.9686485 95.7403233,29.535363 92.6526959,28.9728043 L92.6671337,28.8897869 C95.6268834,28.2400858 97.9689014,25.7701901 98.5391946,22.8547851 C98.9821258,20.5875343 98.331909,18.318221 96.7215783,16.9816929 C95.2231406,15.7266352 93.1121274,15.5611161 91.005755,15.5611161 L77.4331885,15.5611161 L72.027778,43.3487315 L72.027778,43.3487315 Z M83.1825281,26.2182776 L84.0910784,21.518257 L87.4169296,21.518257 C89.0370574,21.518257 90.6870921,21.7982472 90.2818023,23.8669782 C90.1539246,24.5130699 89.7378065,25.204022 89.116981,25.6907822 C88.3971533,26.2600441 87.43343,26.2182776 86.6259442,26.2182776 L83.1825281,26.2182776 L83.1825281,26.2182776 Z" id="Fill-1" fill="#3089C9"></path>
                <path d="M112.359782,34.0742475 C111.915304,36.3399513 111.379558,38.8954425 108.341948,38.8954425 C107.085343,38.8954425 106.345406,38.3277275 106.606833,36.9937776 C107.095656,34.4800529 110.450898,33.8741808 112.434549,33.6730828 L112.359782,34.0742475 Z M118.979515,43.3484736 C118.655696,41.8928337 118.913514,40.3531451 119.216192,38.8134564 L120.624393,31.5646478 C121.200874,28.6085076 122.047032,25.9339045 119.701405,24.0286301 C117.954946,22.5729901 114.903414,22.2455613 112.470128,22.2455613 C107.811874,22.2455613 102.647781,23.5820894 100.433125,28.7301976 L107.671105,29.4159933 C108.254805,27.6752067 109.697039,27.1095542 111.278494,27.1095542 C113.227597,27.1095542 113.571526,27.8386633 113.208519,29.7026868 L113.179643,29.8625339 C110.426663,30.0249592 107.575713,30.346716 104.785092,31.1562642 C101.731496,32.047283 98.756793,34.2392509 98.1194671,37.5176636 C97.3176533,41.6499692 100.270184,43.7584041 104.117859,43.7584041 C106.95334,43.7584041 109.437674,42.8658385 111.516717,40.4743195 C111.331604,41.446293 111.226414,42.4213604 111.239821,43.3484736 L118.979515,43.3484736 Z" id="Fill-3" fill="#3089C9"></path>
                <path d="M131.002699,26.9041764 C132.255178,24.0305379 134.145499,22.0051203 137.3048,22.2459223 L138.379901,22.3299709 L136.971184,29.5808421 C136.507627,29.4539957 135.993538,29.375619 135.468621,29.375619 C134.1785,29.375619 132.790924,29.6174522 131.913827,30.7951645 C131.148624,31.8058107 130.887196,33.1464639 130.649488,34.3571768 L128.904577,43.3503815 L120.890049,43.3503815 L124.907883,22.6532746 L131.753465,22.6532746 L130.926385,26.9041764 L131.002699,26.9041764 Z" id="Fill-5" fill="#3089C9"></path>
                <path d="M158.240285,35.5747993 C156.467014,40.9240055 152.110922,43.7600026 146.846796,43.7600026 C143.84528,43.7600026 141.549669,43.066988 139.781554,40.9240055 C138.07944,38.813508 137.655587,36.0259807 138.228459,33.0636528 C139.442781,26.8265217 144.62389,22.2456129 150.985289,22.2456129 C156.089568,22.2456129 159.556704,25.2440353 159.153992,30.4303006 L151.954685,31.0366883 L151.949528,30.8355903 C151.942825,29.4181074 151.931997,27.7984952 150.150475,27.7984952 C147.598593,27.7984952 146.947861,31.1563158 146.585884,32.9816667 C146.214626,34.9235512 145.641239,38.0874927 148.26892,38.0874927 C150.007644,38.0874927 150.96982,36.505522 151.466377,35.0050217 L158.240285,35.5747993 Z" id="Fill-7" fill="#3089C9"></path>
                <path d="M172.155389,27.3110131 C174.916619,27.3110131 174.253511,30.9163389 173.867815,32.89999 C172.789105,38.4523567 171.375747,38.8555839 169.914951,38.8555839 C168.459311,38.8555839 167.202191,38.4523567 168.278839,32.89999 C168.667628,30.9163389 169.403956,27.3110131 172.155389,27.3110131 M173.138706,22.2459223 C166.663867,22.2459223 160.925356,26.5396219 159.636782,33.1846209 C158.415756,39.4599091 162.637783,43.7597963 168.963603,43.7597963 C175.278595,43.7597963 181.183657,39.4599091 182.401073,33.1846209 C183.691194,26.5396219 179.626952,22.2459223 173.138706,22.2459223" id="Fill-9" fill="#3089C9"></path>
                <path d="M196.322777,34.6835228 C196.130444,35.6962315 196.064443,36.4243094 195.327599,37.316875 C194.745446,38.0016394 194.14834,38.3672252 193.337245,38.3672252 C190.828161,38.3672252 191.335031,35.124907 191.694945,33.3041969 C191.916668,32.1739231 192.385381,30.5904055 192.854094,29.455491 C193.337245,28.2040428 194.125652,27.270742 195.543135,27.270742 C196.185617,27.270742 196.85646,27.5543417 197.129231,28.0782277 C197.519567,28.7299914 197.297328,29.7029962 197.137481,30.5104819 L196.322777,34.6835228 Z M202.664066,43.348783 L208.058648,15.5611677 L200.045152,15.5611677 L198.333756,24.3553369 C197.324657,23.1023418 195.786515,22.2458707 193.797708,22.2458707 C187.567796,22.2458707 184.464184,27.7987531 183.42363,33.1067084 C182.43361,38.2073781 183.42363,43.7602604 189.377162,43.7602604 C191.971841,43.7602604 193.887944,42.8671792 195.497759,40.5937407 L195.582839,40.5937407 L195.048125,43.348783 L202.664066,43.348783 Z" id="Fill-11" fill="#3089C9"></path>
                <path d="M213.758745,43.3486283 L205.739576,43.3486283 L209.766176,22.6530683 L217.785345,22.6530683 L213.758745,43.3486283 Z M218.166915,20.6658078 L210.149294,20.6658078 L211.219238,15.1583014 L219.242016,15.1583014 L218.166915,20.6658078 Z" id="Fill-13" fill="#3089C9"></path>
                <path d="M228.849652,22.6531715 L228.275234,25.5670296 L228.351033,25.5670296 C229.786047,23.2203709 232.363711,22.2458191 234.877435,22.2458191 C236.823445,22.2458191 238.937552,22.8140498 239.845587,24.3944737 C240.814466,26.0965876 240.356066,28.4437619 239.939948,30.5903539 L237.457677,43.3487315 L229.436962,43.3487315 L231.87695,30.7950613 C232.121877,29.5338161 232.462713,27.800764 230.719864,27.800764 C228.48716,27.800764 227.916867,29.7003665 227.587376,31.4009335 L225.262889,43.3487315 L217.249909,43.3487315 L221.275478,22.6531715 L228.849652,22.6531715 Z" id="Fill-15" fill="#3089C9"></path>
                <path d="M248.967494,43.1089092 L252.899217,43.3089759 C253.905223,43.3502268 255.304658,43.2697876 255.036012,44.6496291 C254.667848,46.47498 251.717896,46.273882 250.505636,46.273882 C249.169108,46.273882 247.801641,46.2285061 246.557928,45.9015929 C245.743739,45.7417458 245.055881,45.3369717 245.238931,44.3629356 C245.476124,43.1465506 246.587319,43.0671427 247.519073,43.0671427 L248.967494,43.1089092 Z M250.424681,37.0739074 C249.700213,37.0739074 248.182181,37.1548622 248.390497,36.1065745 C248.589017,35.0845843 249.915748,35.0845843 250.613404,35.0845843 L251.450796,35.1268665 L252.378425,35.168633 C256.548372,35.168633 262.076504,34.0337185 263.084056,28.8479689 C263.431595,27.0262274 262.882443,25.3241135 261.680496,24.1902303 C262.222429,23.4606056 263.372297,23.4224486 264.101921,23.4224486 L266.067525,23.5054659 L267.346302,17.9546461 L266.828604,17.9128796 L264.495867,17.7932521 C261.303566,17.7932521 259.443152,19.6552131 258.417036,22.6531199 C257.216636,22.3298162 255.935281,22.2457676 254.64516,22.2457676 C250.427775,22.2457676 244.294802,23.3791352 243.256827,28.7298882 C242.794302,31.1141884 243.712134,32.6152043 245.691144,33.511895 C243.515161,34.2770986 241.292255,35.6945815 240.824573,38.0876474 C240.543551,39.5468969 241.127251,40.5142297 242.098709,41.361935 C240.144449,42.0162769 238.700669,43.3919933 238.310332,45.3756444 C237.372391,50.238606 245.10435,50.4814704 248.549829,50.4814704 C250.985693,50.4814704 254.197073,50.4036094 256.584467,49.5904517 C259.386432,48.699433 261.732575,46.8323156 262.305446,43.8746285 C262.684954,41.9332595 262.269352,39.9093889 260.918386,38.7337391 C259.669516,37.6416224 257.814258,37.3946329 256.046143,37.3147093 L250.424681,37.0739074 Z M252.919843,31.321474 C251.259495,31.321474 250.53348,30.4686123 250.856784,28.8087805 C251.150696,27.3108584 252.204656,26.2599926 253.74486,26.2599926 C255.403145,26.2599926 256.015205,27.2721857 255.705823,28.8479689 C255.436661,30.2633892 254.41364,31.321474 252.919843,31.321474 L252.919843,31.321474 Z" id="Fill-17" fill="#3089C9"></path>
                <path d="M0.700955358,1.43104414 C4.35165709,-3.24783545 21.3722805,3.92465905 38.714145,17.4647405 C56.0508531,30.9996656 67.153524,45.7710855 63.496119,50.4499651 L62.1673254,49.1041556 C65.5101926,44.8140654 54.6581207,30.742879 37.9190345,17.67512 C21.1784014,4.61251726 4.89255909,-2.50274167 1.5404105,1.79044232 L0.700955358,1.43104414 Z" id="Fill-19" fill="#018CC5"></path>
                <polygon id="Fill-21" fill="#221F20" points="70.4447244 15.2490018 54.539937 12.5336634 10.0828463 45.5560138 14.1929796 57.0227236"></polygon>
                <polygon id="Fill-23" fill="#221F20" points="51.3571232 11.9925036 46.7339323 11.200487 8.06433825 39.9219188 9.25751958 43.2601452"></polygon>
                <polygon id="Fill-25" fill="#221F20" points="44.5385612 10.8268057 41.4596996 10.2993102 6.69450009 36.1238999 7.49373564 38.3431966"></polygon>
                <polygon id="Fill-27" fill="#221F20" points="39.3003714 9.93604478 34.233218 9.07080785 4.83114686 30.9095325 6.14034625 34.5643593"></polygon>
                <polygon id="Fill-29" fill="#221F20" points="32.4243675 8.76173573 28.3142342 8.0635648 3.29970842 26.6388302 4.36294952 29.6047676"></polygon>
                <polygon id="Fill-31" fill="#221F20" points="26.9638871 7.83472562 26.0197578 7.66920651 2.70940851 24.9816798 2.95278863 25.6659285"></polygon>
                <polygon id="Fill-33" fill="#221F20" points="24.289748 7.37421125 20.8808795 6.79721475 1.37901649 21.2788473 2.2612694 23.7363677"></polygon>
                <polygon id="Fill-35" fill="#221F20" points="19.7638576 6.60302629 18.8016811 6.44008536 0.838475436 19.7785532 1.08959009 20.468474"></polygon>
                <polygon id="Fill-37" fill="#221F20" points="17.9211298 6.28678683 16.5923363 6.05939142 0.270915069 18.18199 0.614844173 19.1446821"></polygon>
                <polygon id="Fill-39" fill="#221F20" points="9.9475983e-13 17.425346 0.152628208 17.8574488 16.1383705 5.98493361 15.5397173 5.88232208"></polygon>
                <path d="M1.54035894,1.79059701 C-1.81230528,6.08017155 9.04182911,20.1534205 25.7881342,33.2216952 C42.523611,46.2889386 58.814094,53.4011037 62.1672739,49.1043102 L63.4960674,50.4501198 C59.8458813,55.1403434 42.8262892,47.9539267 25.4808153,34.4174547 C8.13895076,20.8794357 -2.95598557,6.11162534 0.700903795,1.43119883 L1.54035894,1.79059701 Z" id="Fill-41" fill="#018CC5"></path>
                <polygon id="Fill-43" fill="#221F20" points="71.9921476 46.2420157 71.0119238 50.6393581 71.5100281 50.6393581 72.4917987 46.2420157"></polygon>
                <path d="M86.5621085,50.1500713 C86.6837986,49.469432 86.9710077,48.1452792 87.3969229,46.2420673 L87.869761,46.2420673 L86.8879904,50.6414722 L86.1991009,50.6414722 C85.6468549,48.7119629 85.2853942,47.4001854 85.1363754,46.7319213 L85.1126562,46.7319213 C84.986841,47.4058574 84.6986006,48.7238226 84.2716541,50.6414722 L83.7988161,50.6414722 L84.7780085,46.2420673 L85.4761794,46.2420673 C86.0310036,48.148373 86.3888549,49.4745883 86.5414831,50.1500713 L86.5621085,50.1500713 Z" id="Fill-45" fill="#221F20"></path>
                <path d="M102.291786,49.5266676 C101.967967,50.1722436 101.317234,50.7286147 100.58761,50.7286147 C100.110646,50.7286147 99.7290759,50.5507203 99.5336499,50.1985411 C99.309864,49.8303771 99.2490189,49.2657558 99.4336166,48.4309414 C99.59862,47.6873945 99.9033608,47.1016322 100.30401,46.7112959 C100.678877,46.3518977 101.121808,46.1549248 101.619397,46.1549248 C102.304677,46.1549248 102.718732,46.5406204 102.720795,47.2738546 L102.218566,47.3274807 C102.20619,46.8061729 102.016436,46.4782285 101.541536,46.4782285 C100.94907,46.4782285 100.271525,46.9402382 99.9353302,48.4453792 C99.5950106,49.97063 100.063724,50.4037641 100.655673,50.4037641 C101.200185,50.4037641 101.614241,49.8855501 101.811213,49.46376 L102.291786,49.5266676 Z" id="Fill-47" fill="#221F20"></path>
                <path d="M114.345753,48.4370259 C114.706183,46.8205076 115.675578,46.1548217 116.729022,46.1548217 C117.782982,46.1548217 118.455371,46.8205076 118.094942,48.4426979 C117.733481,50.0633413 116.762539,50.7285116 115.711157,50.7285116 C114.656682,50.7285116 113.984808,50.0633413 114.345753,48.4426979 L114.345753,48.4370259 Z M116.650646,46.4812192 C115.951443,46.4812192 115.181599,47.008199 114.860874,48.4442448 C114.542726,49.8735874 115.077956,50.4000515 115.783862,50.4000515 C116.48822,50.4000515 117.258065,49.8735874 117.577243,48.4442448 C117.896937,47.008199 117.362223,46.4812192 116.655802,46.4812192 L116.650646,46.4812192 Z" id="Fill-49" fill="#221F20"></path>
                <path d="M132.553628,50.6415238 L131.947756,50.6415238 L131.175849,48.7558435 L130.544711,48.7558435 L130.124984,50.6415238 L129.627911,50.6415238 L130.60865,46.2421188 L131.700251,46.2421188 C132.61602,46.2421188 133.210033,46.546344 132.998106,47.4904732 C132.820728,48.2897088 132.256622,48.6181688 131.664157,48.6965454 L132.553628,50.6415238 Z M131.324868,48.4325399 C131.929193,48.4325399 132.354593,48.1164551 132.491236,47.499239 C132.626849,46.8928513 132.43297,46.5721258 131.615171,46.5721258 L131.029409,46.5721258 L130.615353,48.4325399 L131.324868,48.4325399 Z" id="Fill-51" fill="#221F20"></path>
                <path d="M144.290428,50.6415238 L145.269621,46.2421188 L146.367409,46.2421188 C147.489433,46.2421188 147.823049,46.6989722 147.642061,47.516255 C147.432197,48.4603842 146.801575,48.8197824 145.724927,48.8197824 L145.186088,48.8197824 L144.781829,50.6415238 L144.290428,50.6415238 Z M145.790413,48.4933849 C146.57057,48.4933849 146.978953,48.2221605 147.138285,47.5188332 C147.279053,46.8830542 147.034126,46.5700632 146.294705,46.5700632 L145.689864,46.5700632 L145.259308,48.4933849 L145.790413,48.4933849 Z" id="Fill-53" fill="#221F20"></path>
                <path d="M159.209629,48.4370259 C159.569027,46.8205076 160.539454,46.1548217 161.592382,46.1548217 C162.644795,46.1548217 163.318216,46.8205076 162.958817,48.4426979 C162.597357,50.0633413 161.628477,50.7285116 160.574517,50.7285116 C159.521589,50.7285116 158.848169,50.0633413 159.207567,48.4426979 L159.209629,48.4370259 Z M161.512459,46.4812192 C160.814288,46.4812192 160.045991,47.008199 159.723203,48.4442448 C159.405571,49.8735874 159.942348,50.4000515 160.647738,50.4000515 C161.352096,50.4000515 162.123487,49.8735874 162.441119,48.4442448 C162.760813,47.008199 162.226099,46.4812192 161.518647,46.4812192 L161.512459,46.4812192 Z" id="Fill-55" fill="#221F20"></path>
                <path d="M177.41802,50.6415238 L176.811632,50.6415238 L176.042303,48.7558435 L175.40704,48.7558435 L174.987828,50.6415238 L174.492818,50.6415238 L175.472526,46.2421188 L176.563611,46.2421188 C177.478349,46.2421188 178.074424,46.546344 177.864045,47.4904732 C177.685119,48.2897088 177.121014,48.6181688 176.528548,48.6965454 L177.41802,50.6415238 Z M176.191838,48.4325399 C176.792554,48.4325399 177.220016,48.1164551 177.355628,47.499239 C177.49124,46.8928513 177.296845,46.5721258 176.480594,46.5721258 L175.893285,46.5721258 L175.479229,48.4325399 L176.191838,48.4325399 Z" id="Fill-57" fill="#221F20"></path>
                <path d="M190.063679,49.2708606 L189.349524,50.6393581 L188.800887,50.6393581 L191.211485,46.2420157 L191.871499,46.2420157 L192.319586,50.6393581 L191.769403,50.6393581 L191.663182,49.2708606 L190.063679,49.2708606 Z M191.550257,47.7564382 C191.524476,47.3691957 191.494569,46.9974222 191.482709,46.5668663 L191.447646,46.5668663 C191.248095,46.9943284 191.051638,47.3758989 190.857243,47.7554069 L190.249308,48.9356973 L191.630181,48.9356973 L191.550257,47.7564382 Z" id="Fill-59" fill="#221F20"></path>
                <polygon id="Fill-61" fill="#221F20" points="207.533834 46.572332 206.379325 46.572332 205.470775 50.6417301 204.972155 50.6417301 205.880706 46.572332 204.724134 46.572332 204.796839 46.2418095 207.607054 46.2418095"></polygon>
                <polygon id="Fill-63" fill="#221F20" points="220.912161 48.1801877 220.841003 48.5091634 219.474052 48.5091634 219.073919 50.3113106 220.862659 50.3113106 220.789439 50.6413176 218.500016 50.6413176 219.481787 46.2419126 221.715521 46.2419126 221.642301 46.5724352 219.907186 46.5724352 219.547788 48.1801877"></polygon>
                <path d="M232.915802,50.6415238 L233.894479,46.2421188 L235.178928,46.2421188 C236.581973,46.2421188 237.098124,46.9129611 236.757805,48.4325399 C236.434501,49.8912737 235.666719,50.6415238 234.213657,50.6415238 L232.915802,50.6415238 Z M234.267283,50.3058449 C235.307321,50.3058449 235.947741,49.7345204 236.235981,48.4392431 C236.511331,47.2027484 236.188027,46.5767665 235.088176,46.5767665 L234.332769,46.5767665 L233.503111,50.3058449 L234.267283,50.3058449 Z" id="Fill-65" fill="#221F20"></path>
                <path d="M20.063442,55.5239764 L20.3145567,55.5239764 C20.4893572,55.5239764 20.6131098,55.503351 20.6868458,55.4615845 C20.7605817,55.4203336 20.7971918,55.3471133 20.7971918,55.2429549 C20.7971918,55.140859 20.7636755,55.0712482 20.6966428,55.0336068 C20.6290945,54.9959653 20.5110139,54.9768868 20.3429167,54.9768868 L20.063442,54.9768868 L20.063442,55.5239764 Z M19.8788444,54.8258055 L20.5048263,54.8258055 C20.6646734,54.8258055 20.7899729,54.8613844 20.8812405,54.9320265 C20.972508,55.0036999 21.017884,55.1021863 21.017884,55.2280015 C21.017884,55.4605532 20.8802092,55.6002905 20.6048597,55.6482447 C20.7131432,55.7137304 20.7915198,55.7802474 20.839474,55.8483114 C20.8879437,55.9163753 20.9673517,56.0803475 21.0761508,56.3407436 L20.8482398,56.3407436 C20.7136588,56.0452843 20.6074378,55.860171 20.5295768,55.7864351 C20.4517158,55.7116679 20.3259007,55.6750577 20.1521314,55.6750577 L20.063442,55.6750577 L20.063442,56.3407436 L19.8788444,56.3407436 L19.8788444,54.8258055 Z M21.7181174,55.5672898 C21.7181174,55.2212982 21.5943648,54.9248076 21.3473753,54.677818 C21.0998701,54.4308285 20.8038951,54.3075915 20.4579034,54.3075915 C20.1119118,54.3075915 19.8159368,54.4308285 19.5694629,54.677818 C19.322989,54.9248076 19.199752,55.2212982 19.199752,55.5672898 C19.199752,55.9132815 19.322989,56.2097721 19.5694629,56.4567617 C19.8159368,56.7037512 20.1119118,56.8269882 20.4579034,56.8269882 C20.8038951,56.8269882 21.0998701,56.7037512 21.3473753,56.4567617 C21.5943648,56.2097721 21.7181174,55.9132815 21.7181174,55.5672898 L21.7181174,55.5672898 Z M19.0167013,55.5672898 C19.0167013,55.1707659 19.1579855,54.8319931 19.4400383,54.5494247 C19.7220911,54.2668563 20.0618951,54.1260877 20.4579034,54.1260877 C20.8539118,54.1260877 21.1932001,54.2668563 21.475253,54.5494247 C21.7578214,54.8319931 21.8991056,55.1707659 21.8991056,55.5672898 C21.8991056,55.9632982 21.7578214,56.3025865 21.475253,56.585155 C21.1932001,56.8672078 20.8539118,57.008492 20.4579034,57.008492 C20.0618951,57.008492 19.7220911,56.8672078 19.4400383,56.585155 C19.1579855,56.3025865 19.0167013,55.9632982 19.0167013,55.5672898 L19.0167013,55.5672898 Z" id="Fill-67" fill="#221F20"></path>
                <path d="M27.6341105,57.0084404 L266.877795,57.0084404" id="Stroke-69" stroke="#F7911D" stroke-width="2.60775"></path>
                <path d="M72.2159335,68.4209053 L71.3305868,68.4209053 L71.3305868,70.5179963 L72.263372,70.5179963 C72.7805548,70.5179963 73.1317028,70.4777767 73.3163004,70.3973375 C73.500898,70.3168983 73.6494012,70.1915988 73.7612941,70.021439 C73.8731871,69.8502479 73.9293914,69.6677128 73.9293914,69.4717712 C73.9293914,69.2696419 73.8700933,69.0855599 73.7520127,68.9179783 C73.6339321,68.7509123 73.4653192,68.6261284 73.2477208,68.5441423 C73.0301225,68.4621562 72.6861934,68.4209053 72.2159335,68.4209053 M72.1447758,65.5905802 L71.3305868,65.5905802 L71.3305868,67.5783564 L71.9601782,67.5783564 C72.4649856,67.5783564 72.8243838,67.4824481 73.0373414,67.2901159 C73.250299,67.0977838 73.35652,66.848216 73.35652,66.5419283 C73.35652,65.9076963 72.9527771,65.5905802 72.1447758,65.5905802 M72.6232858,71.3605452 L70.3838794,71.3605452 L70.3838794,64.7480313 L72.1164158,64.7480313 C72.6624742,64.7480313 73.0883894,64.8217672 73.3946771,64.9682078 C73.7004491,65.1146483 73.9345478,65.3167776 74.0954262,65.5740799 C74.2563045,65.8313821 74.3367437,66.128904 74.3367437,66.4661299 C74.3367437,67.1163467 74.0005492,67.5819658 73.32816,67.8624717 C73.8113108,67.9542549 74.1954595,68.1527747 74.4811218,68.4590624 C74.7662684,68.7653501 74.9090995,69.1309359 74.9090995,69.5573667 C74.9090995,69.8945926 74.8224727,70.1962395 74.6487034,70.4612763 C74.4754498,70.7263132 74.2207257,70.9428802 73.8845311,71.1099462 C73.5483365,71.2770122 73.1280933,71.3605452 72.6232858,71.3605452" id="Fill-71" fill="#221F20"></path>
                <polygon id="Fill-73" fill="#221F20" points="75.8417816 64.7480313 79.5909698 64.7480313 79.5909698 65.5905802 76.788489 65.5905802 76.788489 67.607232 79.4960928 67.607232 79.4960928 68.453906 76.788489 68.453906 76.788489 70.5087148 79.6806904 70.5087148 79.6806904 71.3512638 75.8417816 71.3512638"></polygon>
                <polygon id="Fill-75" fill="#221F20" points="83.3821823 64.7480313 87.1313705 64.7480313 87.1313705 65.5905802 84.3288897 65.5905802 84.3288897 67.607232 87.0364935 67.607232 87.0364935 68.453906 84.3288897 68.453906 84.3288897 70.5087148 87.2210911 70.5087148 87.2210911 71.3512638 83.3821823 71.3512638"></polygon>
                <polygon id="Fill-77" fill="#221F20" points="88.2389047 64.7480313 91.7653382 64.7480313 91.7653382 65.5905802 89.1856121 65.5905802 89.1856121 67.4365565 91.7653382 67.4365565 91.7653382 68.2791055 89.1856121 68.2791055 89.1856121 71.3605452 88.2389047 71.3605452"></polygon>
                <polygon id="Fill-79" fill="#221F20" points="92.7877409 64.7480313 96.3141744 64.7480313 96.3141744 65.5905802 93.7344483 65.5905802 93.7344483 67.4365565 96.3141744 67.4365565 96.3141744 68.2791055 93.7344483 68.2791055 93.7344483 71.3605452 92.7877409 71.3605452"></polygon>
                <mask id="mask-2" fill="white">
                    <use xlink:href="#path-1"></use>
                </mask>
                <g id="Clip-82"></g>
                <polygon id="Fill-81" fill="#221F20" mask="url(#mask-2)" points="97.3365772 71.3603905 98.2832846 71.3603905 98.2832846 64.7478766 97.3365772 64.7478766"></polygon>
                <path d="M105.449798,69.826838 L105.449798,70.8684224 C104.755752,71.2468991 103.953938,71.4361375 103.044872,71.4361375 C102.306997,71.4361375 101.679984,71.28815 101.165895,70.9916594 C100.651806,70.6951688 100.244454,70.2862695 99.9448695,69.7654773 C99.6447694,69.2446851 99.495235,68.6810952 99.495235,68.0757387 C99.495235,67.1130466 99.8381329,66.3034983 100.524444,65.6476095 C101.210755,64.9912051 102.05743,64.6627451 103.064466,64.6627451 C103.758512,64.6627451 104.529903,64.8442489 105.37864,65.2072565 L105.37864,66.2251217 C104.605702,65.7827061 103.84978,65.562014 103.111389,65.562014 C102.354436,65.562014 101.72536,65.8007534 101.225193,66.2792634 C100.725027,66.7572579 100.474943,67.3559111 100.474943,68.0757387 C100.474943,68.801754 100.720901,69.397829 101.213334,69.8649951 C101.705766,70.3316455 102.334842,70.5657442 103.102108,70.5657442 C103.903406,70.5657442 104.686141,70.3192702 105.449798,69.826838" id="Fill-83" fill="#221F20" mask="url(#mask-2)"></path>
                <polygon id="Fill-84" fill="#221F20" mask="url(#mask-2)" points="106.623694 71.3603905 107.570402 71.3603905 107.570402 64.7478766 106.623694 64.7478766"></polygon>
                <polygon id="Fill-85" fill="#221F20" mask="url(#mask-2)" points="109.037592 64.7480313 112.78678 64.7480313 112.78678 65.5905802 109.984299 65.5905802 109.984299 67.607232 112.691903 67.607232 112.691903 68.453906 109.984299 68.453906 109.984299 70.5087148 112.876501 70.5087148 112.876501 71.3512638 109.037592 71.3512638"></polygon>
                <polygon id="Fill-86" fill="#221F20" mask="url(#mask-2)" points="119.139053 64.7480313 120.038322 64.7480313 120.038322 71.3605452 119.224133 71.3605452 114.803071 66.2676101 114.803071 71.3605452 113.913083 71.3605452 113.913083 64.7480313 114.68035 64.7480313 119.139053 69.8842798"></polygon>
                <polygon id="Fill-87" fill="#221F20" mask="url(#mask-2)" points="120.89041 64.7384404 126.414416 64.7384404 126.414416 65.5809894 124.109009 65.5809894 124.109009 71.3607515 123.157661 71.3607515 123.157661 65.5809894 120.89041 65.5809894"></polygon>
                <polygon id="Fill-88" fill="#221F20" mask="url(#mask-2)" points="126.504034 69.2163767 136.359382 69.2163767 136.359382 68.5960668 126.504034 68.5960668"></polygon>
                <path d="M140.505713,68.5583738 L139.438862,66.1632454 L138.449357,68.5583738 L140.505713,68.5583738 Z M139.115043,64.7101836 L139.780213,64.7101836 L142.745119,71.3608546 L141.776239,71.3608546 L140.895018,69.4009228 L138.073458,69.4009228 L137.24741,71.3608546 L136.274405,71.3608546 L139.115043,64.7101836 Z" id="Fill-89" fill="#221F20" mask="url(#mask-2)"></path>
                <path d="M148.780069,69.826838 L148.780069,70.8684224 C148.086024,71.2468991 147.284725,71.4361375 146.375659,71.4361375 C145.637269,71.4361375 145.010771,71.28815 144.496167,70.9916594 C143.982078,70.6951688 143.574726,70.2862695 143.275141,69.7654773 C142.975557,69.2446851 142.825507,68.6810952 142.825507,68.0757387 C142.825507,67.1130466 143.16892,66.3034983 143.855232,65.6476095 C144.541543,64.9912051 145.388217,64.6627451 146.394738,64.6627451 C147.088784,64.6627451 147.860691,64.8442489 148.708912,65.2072565 L148.708912,66.2251217 C147.935974,65.7827061 147.180051,65.562014 146.442177,65.562014 C145.684707,65.562014 145.055632,65.8007534 144.555981,66.2792634 C144.055298,66.7572579 143.80573,67.3559111 143.80573,68.0757387 C143.80573,68.801754 144.051689,69.397829 144.543605,69.8649951 C145.036038,70.3316455 145.665629,70.5657442 146.432379,70.5657442 C147.234193,70.5657442 148.016928,70.3192702 148.780069,69.826838" id="Fill-90" fill="#221F20" mask="url(#mask-2)"></path>
                <path d="M155.643492,69.826838 L155.643492,70.8684224 C154.949446,71.2468991 154.148148,71.4361375 153.239082,71.4361375 C152.500691,71.4361375 151.874194,71.28815 151.359589,70.9916594 C150.8455,70.6951688 150.438148,70.2862695 150.138564,69.7654773 C149.838979,69.2446851 149.688929,68.6810952 149.688929,68.0757387 C149.688929,67.1130466 150.032343,66.3034983 150.718654,65.6476095 C151.404965,64.9912051 152.251639,64.6627451 153.25816,64.6627451 C153.952206,64.6627451 154.724113,64.8442489 155.572334,65.2072565 L155.572334,66.2251217 C154.799396,65.7827061 154.043474,65.562014 153.305599,65.562014 C152.54813,65.562014 151.919054,65.8007534 151.419403,66.2792634 C150.918721,66.7572579 150.669153,67.3559111 150.669153,68.0757387 C150.669153,68.801754 150.915111,69.397829 151.407028,69.8649951 C151.89946,70.3316455 152.529051,70.5657442 153.295802,70.5657442 C154.097616,70.5657442 154.880351,70.3192702 155.643492,69.826838" id="Fill-91" fill="#221F20" mask="url(#mask-2)"></path>
                <path d="M161.409125,64.7480313 L162.360474,64.7480313 L162.360474,68.5013445 C162.360474,69.0097615 162.322832,69.3933945 162.249096,69.6522437 C162.174845,69.9105773 162.083577,70.126113 161.974778,70.2983354 C161.865979,70.4700421 161.732429,70.6242173 161.574645,70.7593139 C161.050759,71.2104952 160.365994,71.4363437 159.520351,71.4363437 C158.658724,71.4363437 157.967772,71.2125578 157.44698,70.7644702 C157.289195,70.6252485 157.156161,70.4700421 157.046846,70.2983354 C156.938047,70.126113 156.848326,69.915218 156.777684,69.6661659 C156.706527,69.4171138 156.670948,69.0257462 156.670948,68.4920631 L156.670948,64.7480313 L157.62178,64.7480313 L157.62178,68.5013445 C157.62178,69.1232013 157.692938,69.5553042 157.834738,69.7986843 C157.977053,70.0420644 158.19362,70.2364591 158.483408,70.3834153 C158.774226,70.5298559 159.116609,70.6030762 159.510554,70.6030762 C160.072597,70.6030762 160.529966,70.4566356 160.883177,70.1632388 C161.069837,70.0049386 161.203902,69.8193097 161.285889,69.6048052 C161.367875,69.3897851 161.409125,69.0221367 161.409125,68.5013445 L161.409125,64.7480313 Z" id="Fill-92" fill="#221F20" mask="url(#mask-2)"></path>
                <path d="M164.930454,65.552681 L164.646339,65.552681 L164.646339,67.6399748 L165.005737,67.6399748 C165.485794,67.6399748 165.81477,67.5992396 165.99318,67.5172535 C166.171074,67.4347518 166.310296,67.3109992 166.409813,67.1454801 C166.509331,66.979961 166.558832,66.7912383 166.558832,66.5798276 C166.558832,66.3715107 166.503659,66.1833036 166.393313,66.0141751 C166.282451,65.8450465 166.127245,65.7264503 165.927178,65.6568394 C165.726596,65.5872286 165.394011,65.552681 164.930454,65.552681 L164.930454,65.552681 Z M163.699631,71.3608031 L163.699631,64.7477734 L165.356369,64.7477734 C166.025665,64.7477734 166.556254,64.9138082 166.949168,65.2448464 C167.342599,65.5764002 167.539056,66.0244878 167.539056,66.5896246 C167.539056,66.974289 167.442116,67.3068741 167.249784,67.5878956 C167.057452,67.8689172 166.781587,68.0787809 166.421673,68.217487 C166.633084,68.356193 166.839338,68.545947 167.041983,68.7857177 C167.243597,69.0254883 167.527712,69.443669 167.893813,70.039744 C168.123787,70.4156426 168.3089,70.698211 168.447091,70.8874494 L168.797723,71.3608031 L167.671059,71.3608031 L167.382818,70.9250908 C167.373021,70.9091061 167.354458,70.882293 167.326098,70.8446516 L167.141501,70.5837398 L166.848619,70.1005891 L166.531503,69.5844376 C166.336593,69.3132131 166.157667,69.0971617 165.994727,68.9362833 C165.831786,68.7759206 165.685345,68.6599025 165.553858,68.5892604 C165.422886,68.5181027 165.202194,68.4830394 164.892813,68.4830394 L164.646339,68.4830394 L164.646339,71.3608031 L163.699631,71.3608031 Z" id="Fill-93" fill="#221F20" mask="url(#mask-2)"></path>
                <path d="M173.029546,68.5583738 L171.962696,66.1632454 L170.973191,68.5583738 L173.029546,68.5583738 Z M171.638876,64.7101836 L172.304047,64.7101836 L175.268953,71.3608546 L174.300073,71.3608546 L173.418851,69.4009228 L170.597292,69.4009228 L169.771243,71.3608546 L168.798239,71.3608546 L171.638876,64.7101836 Z" id="Fill-94" fill="#221F20" mask="url(#mask-2)"></path>
                <polygon id="Fill-95" fill="#221F20" mask="url(#mask-2)" points="174.459147 64.7384404 179.983153 64.7384404 179.983153 65.5809894 177.677746 65.5809894 177.677746 71.3607515 176.726397 71.3607515 176.726397 65.5809894 174.459147 65.5809894"></polygon>
                <polygon id="Fill-96" fill="#221F20" mask="url(#mask-2)" points="180.877885 64.7480313 184.627073 64.7480313 184.627073 65.5905802 181.824592 65.5905802 181.824592 67.607232 184.532196 67.607232 184.532196 68.453906 181.824592 68.453906 181.824592 70.5087148 184.716278 70.5087148 184.716278 71.3512638 180.877885 71.3512638"></polygon>
                <polygon id="Fill-97" fill="#221F20" mask="url(#mask-2)" points="184.920418 69.2163767 194.77525 69.2163767 194.77525 68.5960668 184.920418 68.5960668"></polygon>
                <path d="M201.118138,69.826838 L201.118138,70.8684224 C200.424092,71.2468991 199.622794,71.4361375 198.713728,71.4361375 C197.975338,71.4361375 197.34884,71.28815 196.834236,70.9916594 C196.320147,70.6951688 195.912794,70.2862695 195.61321,69.7654773 C195.313626,69.2446851 195.163576,68.6810952 195.163576,68.0757387 C195.163576,67.1130466 195.506989,66.3034983 196.1933,65.6476095 C196.879612,64.9912051 197.726286,64.6627451 198.732807,64.6627451 C199.426853,64.6627451 200.19876,64.8442489 201.04698,65.2072565 L201.04698,66.2251217 C200.274042,65.7827061 199.51812,65.562014 198.780245,65.562014 C198.022776,65.562014 197.393701,65.8007534 196.894049,66.2792634 C196.393367,66.7572579 196.143799,67.3559111 196.143799,68.0757387 C196.143799,68.801754 196.389758,69.397829 196.881674,69.8649951 C197.374106,70.3316455 198.003698,70.5657442 198.770448,70.5657442 C199.572262,70.5657442 200.354997,70.3192702 201.118138,69.826838" id="Fill-98" fill="#221F20" mask="url(#mask-2)"></path>
                <path d="M205.565497,65.552681 C204.808544,65.552681 204.186687,65.7893578 203.699927,66.2627115 C203.212651,66.7360652 202.969271,67.3403904 202.969271,68.0756871 C202.969271,68.7888115 203.213167,69.3823083 203.701989,69.855662 C204.190812,70.3290157 204.802356,70.5656926 205.536622,70.5656926 C206.274497,70.5656926 206.890166,70.3238594 207.383629,69.8412242 C207.877093,69.3585891 208.124082,68.7573577 208.124082,68.0375301 C208.124082,67.3372966 207.877093,66.7474092 207.383629,66.2699304 C206.890166,65.791936 206.284294,65.552681 205.565497,65.552681 M205.52734,64.6534121 C206.548815,64.6534121 207.40013,64.9767157 208.079738,65.6238387 C208.75883,66.2709617 209.09915,67.0815412 209.09915,68.0566086 C209.09915,69.031676 208.755736,69.8391617 208.069941,70.4780345 C207.384145,71.1169073 206.519424,71.4360859 205.475261,71.4360859 C204.479053,71.4360859 203.648363,71.1169073 202.98474,70.4780345 C202.321117,69.8391617 201.989047,69.0383792 201.989047,68.0756871 C201.989047,67.0882445 202.323695,66.2709617 202.991959,65.6238387 C203.660739,64.9767157 204.50535,64.6534121 205.52734,64.6534121" id="Fill-99" fill="#221F20" mask="url(#mask-2)"></path>
                <polygon id="Fill-100" fill="#221F20" mask="url(#mask-2)" points="215.51763 64.7480313 216.416899 64.7480313 216.416899 71.3605452 215.60271 71.3605452 211.181648 66.2676101 211.181648 71.3605452 210.291661 71.3605452 210.291661 64.7480313 211.058927 64.7480313 215.51763 69.8842798"></polygon>
                <polygon id="Fill-101" fill="#221F20" mask="url(#mask-2)" points="223.086545 64.7480313 223.985814 64.7480313 223.985814 71.3605452 223.171625 71.3605452 218.750564 66.2676101 218.750564 71.3605452 217.860576 71.3605452 217.860576 64.7480313 218.627842 64.7480313 223.086545 69.8842798"></polygon>
                <polygon id="Fill-102" fill="#221F20" mask="url(#mask-2)" points="225.401338 64.7480313 229.150526 64.7480313 229.150526 65.5905802 226.348045 65.5905802 226.348045 67.607232 229.055649 67.607232 229.055649 68.453906 226.348045 68.453906 226.348045 70.5087148 229.239731 70.5087148 229.239731 71.3512638 225.401338 71.3512638"></polygon>
                <path d="M235.947225,69.826838 L235.947225,70.8684224 C235.253179,71.2468991 234.451881,71.4361375 233.542815,71.4361375 C232.804425,71.4361375 232.177927,71.28815 231.663322,70.9916594 C231.149234,70.6951688 230.741881,70.2862695 230.442297,69.7654773 C230.142712,69.2446851 229.992662,68.6810952 229.992662,68.0757387 C229.992662,67.1130466 230.336076,66.3034983 231.022387,65.6476095 C231.708698,64.9912051 232.555372,64.6627451 233.561894,64.6627451 C234.255939,64.6627451 235.027846,64.8442489 235.876067,65.2072565 L235.876067,66.2251217 C235.103129,65.7827061 234.347207,65.562014 233.609332,65.562014 C232.851863,65.562014 232.222787,65.8007534 231.723136,66.2792634 C231.222454,66.7572579 230.972886,67.3559111 230.972886,68.0757387 C230.972886,68.801754 231.218844,69.397829 231.710761,69.8649951 C232.203193,70.3316455 232.832785,70.5657442 233.599535,70.5657442 C234.401349,70.5657442 235.184084,70.3192702 235.947225,69.826838" id="Fill-103" fill="#221F20" mask="url(#mask-2)"></path>
                <polygon id="Fill-104" fill="#221F20" mask="url(#mask-2)" points="236.548456 64.7384404 242.072463 64.7384404 242.072463 65.5809894 239.767055 65.5809894 239.767055 71.3607515 238.815707 71.3607515 238.815707 65.5809894 236.548456 65.5809894"></polygon>
                <polygon id="Fill-105" fill="#221F20" mask="url(#mask-2)" points="242.967194 64.7480313 246.716383 64.7480313 246.716383 65.5905802 243.913902 65.5905802 243.913902 67.607232 246.621506 67.607232 246.621506 68.453906 243.913902 68.453906 243.913902 70.5087148 246.805588 70.5087148 246.805588 71.3512638 242.967194 71.3512638"></polygon>
                <path d="M249.953957,65.5904771 L248.770057,65.5904771 L248.770057,70.5086117 L249.982317,70.5086117 C250.455671,70.5086117 250.823319,70.4766423 251.084746,70.4116722 C251.346689,70.3472177 251.565319,70.264716 251.740635,70.1651982 C251.915951,70.0661962 252.075798,69.9434748 252.220692,69.7985812 C252.688374,69.3252275 252.921441,68.7270899 252.921441,68.0046841 C252.921441,67.2946535 252.68167,66.7155945 252.202129,66.2669913 C252.025782,66.0999253 251.822621,65.9632818 251.594195,65.8560295 C251.364737,65.7487773 251.147654,65.6776195 250.942946,65.6430719 C250.738239,65.6080087 250.408232,65.5904771 249.953957,65.5904771 L249.953957,65.5904771 Z M247.82335,71.3511607 L247.82335,64.7479281 L250.052959,64.7479281 C250.952744,64.7479281 251.663805,64.8830247 252.187691,65.1527023 C252.712093,65.4223798 253.128211,65.8194194 253.437593,66.3433054 C253.746458,66.8671914 253.901149,67.4380003 253.901149,68.0567633 C253.901149,68.4986632 253.816069,68.9214846 253.64591,69.3252275 C253.475234,69.7289703 253.23237,70.0842434 252.9168,70.3905311 C252.595044,70.7061002 252.220692,70.944324 251.794777,71.1046867 C251.545725,71.2031732 251.317298,71.2686589 251.108466,71.301144 C250.900664,71.3346603 250.502593,71.3511607 249.9158,71.3511607 L247.82335,71.3511607 Z" id="Fill-106" fill="#221F20" mask="url(#mask-2)"></path>
                <path d="M259.600008,68.6057092 L259.008574,68.6057092 L259.008574,64.7482375 L259.956828,64.7482375 L260.932927,67.8291616 L261.8719,64.7482375 L262.804685,64.7482375 L262.804685,68.6057092 L262.212735,68.6057092 L262.212735,65.3680318 L261.221167,68.6057092 L260.642108,68.6057092 L259.600008,65.3159526 L259.600008,68.6057092 Z M257.313679,68.6057092 L256.670165,68.6057092 L256.670165,65.3159526 L255.42078,65.3159526 L255.42078,64.7482375 L258.573377,64.7482375 L258.573377,65.3159526 L257.313679,65.3159526 L257.313679,68.6057092 Z" id="Fill-107" fill="#221F20" mask="url(#mask-2)"></path>
            </g>
        </g>
    </g>
</svg>