<?xml version="1.0" encoding="UTF-8" standalone="no"?>
<svg width="226px" height="65px" viewBox="0 0 226 65" version="1.1" xmlns="http://www.w3.org/2000/svg" xmlns:xlink="http://www.w3.org/1999/xlink">
    <!-- Generator: Sketch 3.8.3 (29802) - http://www.bohemiancoding.com/sketch -->
    <title>Page 1</title>
    <desc>Created with Sketch.</desc>
    <defs></defs>
    <g id="Internal" stroke="none" stroke-width="1" fill="none" fill-rule="evenodd">
        <g id="Kitchen-Sink" transform="translate(-91.000000, -6447.000000)">
            <g id="Footer" transform="translate(0.000000, 6366.000000)">
                <g id="footer" transform="translate(0.000000, 0.671875)">
                    <g id="Group-10" transform="translate(91.000000, 80.000000)">
                        <g id="Page-1" transform="translate(0.917969, 0.839219)">
                            <path d="M214.624054,63.034554 L214.624054,59.9865647 C214.327563,59.8375624 214.02869,59.7624653 213.726245,59.7624653 C213.252335,59.7624653 212.874874,59.9174276 212.595052,60.2273522 C212.315231,60.5372769 212.174725,60.9556751 212.174725,61.4813549 C212.174725,61.9772343 212.296179,62.35868 212.540279,62.626884 C212.686738,62.7866143 212.841533,62.8950879 213.005854,62.9511128 C213.168984,63.0071376 213.463094,63.034554 213.888184,63.034554 L214.624054,63.034554 Z M214.624054,56.5464015 L215.58021,56.5464015 L215.58021,63.8498942 L213.548826,63.8498942 C212.837961,63.8498942 212.271174,63.6257948 211.848465,63.1752121 C211.425756,62.7258214 211.213807,62.1226604 211.213807,61.3669212 C211.213807,60.6600547 211.436473,60.077158 211.879424,59.6206152 C212.323566,59.1640724 212.890353,58.936397 213.579785,58.936397 C213.900091,58.936397 214.247784,59.004342 214.624054,59.1402321 L214.624054,56.5464015 Z M207.030776,60.9592511 L209.449146,60.9592511 C209.424141,60.5789975 209.311022,60.2869531 209.109788,60.0807341 C208.907365,59.875707 208.635878,59.7720015 208.29533,59.7720015 C207.953591,59.7720015 207.67496,59.875707 207.457057,60.0807341 C207.239153,60.2869531 207.097457,60.5789975 207.030776,60.9592511 L207.030776,60.9592511 Z M210.388631,61.5290356 L207.010533,61.5290356 C207.034348,61.9891545 207.189143,62.3551039 207.472536,62.626884 C207.75593,62.898664 208.122674,63.034554 208.571579,63.034554 C209.197902,63.034554 209.776597,62.8390631 210.30528,62.4492733 L210.30528,63.3790471 C210.013552,63.5745381 209.723014,63.7140041 209.436048,63.7974454 C209.149083,63.8808866 208.812106,63.9237993 208.425119,63.9237993 C207.896436,63.9237993 207.467773,63.8129416 207.140323,63.5936103 C206.814063,63.3742791 206.552103,63.0786587 206.354442,62.7079412 C206.157971,62.3372236 206.060332,61.9069052 206.060332,61.41937 C206.060332,60.6874711 206.267518,60.0926542 206.681892,59.6337274 C207.095075,59.1759926 207.633285,58.9459332 208.29533,58.9459332 C208.93237,58.9459332 209.440811,59.1700325 209.819463,59.6158471 C210.199306,60.0616618 210.388631,60.6600547 210.388631,61.4086418 L210.388631,61.5290356 Z M202.059482,59.8041859 L203.845576,58.0471518 L203.845576,59.0401026 L205.364946,59.0401026 L205.364946,59.8983554 L203.845576,59.8983554 L203.845576,62.2513984 C203.845576,62.8021106 204.074196,63.0762746 204.530245,63.0762746 C204.870793,63.0762746 205.231584,62.963033 205.611427,62.7365496 L205.611427,63.6257948 C205.245873,63.8308219 204.846979,63.9333354 204.414744,63.9333354 C203.980128,63.9333354 203.618146,63.8069815 203.328799,63.5518897 C203.238304,63.4756006 203.163288,63.3897753 203.104942,63.2932219 C203.045406,63.1978604 202.995395,63.0715066 202.956101,62.9165443 C202.915616,62.761582 202.895374,62.4659616 202.895374,62.0308751 L202.895374,59.8983554 L202.059482,59.8983554 L202.059482,59.8041859 Z M200.393652,63.0452822 C200.759206,63.0452822 201.179533,62.9391926 201.652253,62.7258214 L201.652253,63.6675154 C201.175961,63.8451261 200.709196,63.9333354 200.253146,63.9333354 C199.500606,63.9333354 198.901669,63.7104281 198.453955,63.2646134 C198.006241,62.8187988 197.783574,62.2204059 197.783574,61.4718188 C197.783574,60.7148875 198.000287,60.1057664 198.436094,59.6420715 C198.87071,59.1783766 199.443451,58.9459332 200.154316,58.9459332 C200.400797,58.9459332 200.623463,58.9697735 200.819933,59.0174542 C201.016404,59.0639429 201.259312,59.1521522 201.547469,59.2808902 L201.547469,60.2952973 C201.067605,59.9889487 200.622272,59.8351784 200.211471,59.8351784 C199.782808,59.8351784 199.431543,59.9865647 199.156485,60.2869531 C198.881427,60.5885336 198.743302,60.9735554 198.743302,61.4396343 C198.743302,61.9319376 198.892143,62.3217274 199.189825,62.6113877 C199.487508,62.899856 199.888783,63.0452822 200.393652,63.0452822 L200.393652,63.0452822 Z M193.662461,60.9592511 L196.080832,60.9592511 C196.055827,60.5789975 195.942707,60.2869531 195.741474,60.0807341 C195.53905,59.875707 195.267564,59.7720015 194.927016,59.7720015 C194.585276,59.7720015 194.305455,59.875707 194.088742,60.0807341 C193.870839,60.2869531 193.729142,60.5789975 193.662461,60.9592511 L193.662461,60.9592511 Z M197.020317,61.5290356 L193.642219,61.5290356 C193.666034,61.9891545 193.819638,62.3551039 194.104222,62.626884 C194.387615,62.898664 194.75436,63.034554 195.203265,63.034554 C195.829588,63.034554 196.408282,62.8390631 196.936966,62.4492733 L196.936966,63.3790471 C196.644047,63.5745381 196.3547,63.7140041 196.067734,63.7974454 C195.780768,63.8808866 195.443792,63.9237993 195.056805,63.9237993 C194.528121,63.9237993 194.099459,63.8129416 193.772008,63.5936103 C193.444558,63.3742791 193.182598,63.0786587 192.986127,62.7079412 C192.789657,62.3372236 192.692017,61.9069052 192.692017,61.41937 C192.692017,60.6874711 192.898013,60.0926542 193.312387,59.6337274 C193.726761,59.1759926 194.26497,58.9459332 194.927016,58.9459332 C195.564056,58.9459332 196.071306,59.1700325 196.451149,59.6158471 C196.830991,60.0616618 197.020317,60.6600547 197.020317,61.4086418 L197.020317,61.5290356 Z M188.529229,59.0401026 L188.529229,59.6527997 C188.954319,59.1819527 189.436564,58.9459332 189.975964,58.9459332 C190.274837,58.9459332 190.553468,59.0246063 190.811856,59.1795687 C191.069054,59.334531 191.264333,59.5467101 191.398886,59.8172981 C191.533438,60.0866942 191.600119,60.5146285 191.600119,61.0999092 L191.600119,63.8498942 L190.649917,63.8498942 L190.649917,61.1106374 C190.649917,60.6195261 190.574901,60.2678808 190.424869,60.0568937 C190.274837,59.8470986 190.024784,59.741009 189.673519,59.741009 C189.223424,59.741009 188.84239,59.9663004 188.529229,60.415691 L188.529229,63.8498942 L187.557594,63.8498942 L187.557594,59.0401026 L188.529229,59.0401026 Z M183.181665,59.0401026 L183.181665,59.6527997 C183.606755,59.1819527 184.089,58.9459332 184.628401,58.9459332 C184.928464,58.9459332 185.205904,59.0246063 185.464292,59.1795687 C185.72149,59.334531 185.91796,59.5467101 186.051322,59.8172981 C186.185874,60.0866942 186.252555,60.5146285 186.252555,61.0999092 L186.252555,63.8498942 L185.302353,63.8498942 L185.302353,61.1106374 C185.302353,60.6195261 185.227337,60.2678808 185.077305,60.0568937 C184.928464,59.8470986 184.677221,59.741009 184.325955,59.741009 C183.877051,59.741009 183.494827,59.9663004 183.181665,60.415691 L183.181665,63.8498942 L182.211221,63.8498942 L182.211221,59.0401026 L183.181665,59.0401026 Z M178.573544,59.8876272 C178.117495,59.8876272 177.743606,60.0378214 177.450686,60.3370179 C177.158958,60.6374063 177.012498,61.018852 177.012498,61.4813549 C177.012498,61.9414738 177.161339,62.3169593 177.461403,62.6090037 C177.760276,62.899856 178.144881,63.0452822 178.615219,63.0452822 C179.081985,63.0452822 179.464209,62.897472 179.761891,62.6030436 C180.059574,62.3086152 180.208415,61.9319376 180.208415,61.4718188 C180.208415,61.015276 180.05362,60.6374063 179.74284,60.3370179 C179.43325,60.0378214 179.043882,59.8876272 178.573544,59.8876272 L178.573544,59.8876272 Z M178.625936,59.0305664 C179.357043,59.0305664 179.964315,59.2665859 180.448942,59.738625 C180.932378,60.210664 181.174096,60.8042888 181.174096,61.5183075 C181.174096,62.2120618 180.928806,62.7878063 180.438225,63.2467332 C179.947645,63.704468 179.328466,63.9333354 178.58426,63.9333354 C177.863869,63.9333354 177.26136,63.7008919 176.776734,63.236005 C176.293298,62.7711181 176.05158,62.1894134 176.05158,61.4920831 C176.05158,60.7887926 176.295679,60.2023199 176.785069,59.7326649 C177.274458,59.2642019 177.887684,59.0305664 178.625936,59.0305664 L178.625936,59.0305664 Z M172.584177,62.9713771 C173.468889,62.9713771 174.332167,62.699597 175.174013,62.1560369 L175.174013,63.3063341 C174.408374,63.7247323 173.523662,63.9333354 172.521068,63.9333354 C171.70661,63.9333354 171.015987,63.770029 170.448009,63.4422241 C169.881222,63.1144192 169.431127,62.6638365 169.101295,62.0880919 C168.770272,61.5135394 168.604761,60.8913061 168.604761,60.2225842 C168.604761,59.1593044 168.983413,58.265291 169.740716,57.5405443 C170.49802,56.8157975 171.431551,56.4534241 172.542501,56.4534241 C173.30814,56.4534241 174.159511,56.6536831 175.095424,57.054201 L175.095424,58.1782738 C174.242862,57.6895465 173.409352,57.4463749 172.594894,57.4463749 C171.759002,57.4463749 171.064807,57.7098108 170.513499,58.2378746 C169.962192,58.7659385 169.685943,59.4275083 169.685943,60.2225842 C169.685943,61.0236201 169.957429,61.6828059 170.500401,62.1977576 C171.043374,62.7139012 171.737569,62.9713771 172.584177,62.9713771 L172.584177,62.9713771 Z M162.083138,61.9891545 L164.68369,61.9891545 L164.68369,60.9699793 L162.083138,60.9699793 L162.083138,61.9891545 Z M154.968532,60.9592511 L157.386903,60.9592511 C157.363088,60.5789975 157.248778,60.2869531 157.047545,60.0807341 C156.845121,59.875707 156.573635,59.7720015 156.233087,59.7720015 C155.891347,59.7720015 155.612717,59.875707 155.394813,60.0807341 C155.17691,60.2869531 155.035213,60.5789975 154.968532,60.9592511 L154.968532,60.9592511 Z M158.326388,61.5290356 L154.94829,61.5290356 C154.972105,61.9891545 155.126899,62.3551039 155.410293,62.626884 C155.693686,62.898664 156.060431,63.034554 156.509336,63.034554 C157.13685,63.034554 157.714353,62.8390631 158.243037,62.4492733 L158.243037,63.3790471 C157.951309,63.5745381 157.660771,63.7140041 157.373805,63.7974454 C157.086839,63.8808866 156.749863,63.9237993 156.362876,63.9237993 C155.834192,63.9237993 155.40553,63.8129416 155.07927,63.5936103 C154.75182,63.3742791 154.489859,63.0786587 154.293389,62.7079412 C154.095728,62.3372236 153.998088,61.9069052 153.998088,61.41937 C153.998088,60.6874711 154.205275,60.0926542 154.619649,59.6337274 C155.034023,59.1759926 155.571041,58.9459332 156.233087,58.9459332 C156.870127,58.9459332 157.378568,59.1700325 157.75722,59.6158471 C158.137062,60.0616618 158.326388,60.6600547 158.326388,61.4086418 L158.326388,61.5290356 Z M149.99843,59.8041859 L151.783332,58.0471518 L151.783332,59.0401026 L153.303893,59.0401026 L153.303893,59.8983554 L151.783332,59.8983554 L151.783332,62.2513984 C151.783332,62.8021106 152.011952,63.0762746 152.468002,63.0762746 C152.80855,63.0762746 153.169341,62.963033 153.549183,62.7365496 L153.549183,63.6257948 C153.18363,63.8308219 152.784735,63.9333354 152.352501,63.9333354 C151.917885,63.9333354 151.555903,63.8069815 151.266556,63.5518897 C151.176061,63.4756006 151.101045,63.3897753 151.042699,63.2932219 C150.983163,63.1978604 150.933152,63.0715066 150.893858,62.9165443 C150.853373,62.761582 150.833131,62.4659616 150.833131,62.0308751 L150.833131,59.8983554 L149.99843,59.8983554 L149.99843,59.8041859 Z M147.347867,63.2693815 C147.650312,63.2693815 147.931324,63.1466037 148.188522,62.898664 L148.188522,61.4718188 L147.551482,61.7173744 C147.227603,61.8461123 146.998983,61.9760423 146.864431,62.1071642 C146.731069,62.2370942 146.663198,62.4004006 146.663198,62.5958915 C146.663198,62.7937664 146.727497,62.9558808 146.853714,63.0810427 C146.981122,63.2073966 147.145443,63.2693815 147.347867,63.2693815 L147.347867,63.2693815 Z M149.123244,60.9592511 L149.123244,63.0035616 C149.123244,63.166868 149.179208,63.2491172 149.289946,63.2491172 C149.405447,63.2491172 149.584056,63.1632919 149.828155,62.9928334 L149.828155,63.573346 C149.612633,63.7128121 149.438787,63.8069815 149.308998,63.8582383 C149.178017,63.908303 149.041084,63.9333354 148.898196,63.9333354 C148.490967,63.9333354 148.25163,63.773605 148.177805,63.4529522 C147.774148,63.7664529 147.344295,63.9237993 146.888246,63.9237993 C146.553651,63.9237993 146.27502,63.8129416 146.052354,63.5912263 C145.829688,63.369511 145.71895,63.0917709 145.71895,62.7580059 C145.71895,62.4540414 145.827306,62.1834534 146.045209,61.9450498 C146.261922,61.7054542 146.571512,61.5171154 146.971597,61.3776494 L148.188522,60.9592511 L148.188522,60.7029673 C148.188522,60.1248387 147.899174,59.8351784 147.321671,59.8351784 C146.802513,59.8351784 146.297644,60.1033824 145.807064,60.6397904 L145.807064,59.6003509 C146.17619,59.1640724 146.707255,58.9459332 147.400259,58.9459332 C147.918226,58.9459332 148.334981,59.0818232 148.648143,59.3547953 C148.752927,59.4418126 148.845804,59.5574383 148.930346,59.7016724 C149.013697,59.8470986 149.066089,59.9913327 149.088713,60.1355669 C149.111337,60.280993 149.123244,60.5551571 149.123244,60.9592511 L149.123244,60.9592511 Z M142.888587,59.0401026 L142.888587,60.143911 L142.939788,60.0604698 C143.39941,59.3178427 143.859031,58.9459332 144.318652,58.9459332 C144.677062,58.9459332 145.052141,59.1283119 145.44151,59.4906853 L144.940213,60.3262897 C144.60919,60.0127891 144.303173,59.8566347 144.02097,59.8566347 C143.714953,59.8566347 143.44942,60.0020609 143.224373,60.2952973 C143.000515,60.5885336 142.888587,60.9354108 142.888587,61.3359287 L142.888587,63.8498942 L141.932432,63.8498942 L141.932432,59.0401026 L142.888587,59.0401026 Z M139.581933,63.8498942 L139.581933,63.233621 C139.380699,63.4541443 139.149698,63.6269868 138.890119,63.7497647 C138.631731,63.8725425 138.372152,63.9333354 138.114954,63.9333354 C137.812509,63.9333354 137.532688,63.8582383 137.276681,63.706852 C137.020675,63.5542738 136.827776,63.3492467 136.696796,63.0893868 C136.567007,62.829527 136.501517,62.3980165 136.501517,61.7960476 L136.501517,59.0401026 L137.451718,59.0401026 L137.451718,61.7817434 C137.451718,62.2859669 137.524353,62.6388041 137.668431,62.8390631 C137.812509,63.0393221 138.066135,63.1394516 138.428116,63.1394516 C138.880593,63.1394516 139.265199,62.9177363 139.581933,62.4754977 L139.581933,59.0401026 L140.533325,59.0401026 L140.533325,63.8498942 L139.581933,63.8498942 Z M134.183167,63.0452822 C134.548721,63.0452822 134.967858,62.9391926 135.441768,62.7258214 L135.441768,63.6675154 C134.964286,63.8451261 134.49752,63.9333354 134.041471,63.9333354 C133.290121,63.9333354 132.689993,63.7104281 132.242279,63.2646134 C131.795756,62.8187988 131.571899,62.2204059 131.571899,61.4718188 C131.571899,60.7148875 131.789802,60.1057664 132.224418,59.6420715 C132.659034,59.1783766 133.231775,58.9459332 133.94264,58.9459332 C134.189121,58.9459332 134.411787,58.9697735 134.608258,59.0174542 C134.804728,59.0639429 135.047637,59.1521522 135.336984,59.2808902 L135.336984,60.2952973 C134.855929,59.9889487 134.410597,59.8351784 133.999795,59.8351784 C133.572323,59.8351784 133.219868,59.9865647 132.944809,60.2869531 C132.669751,60.5885336 132.532817,60.9735554 132.532817,61.4396343 C132.532817,61.9319376 132.681658,62.3217274 132.97934,62.6113877 C133.277023,62.899856 133.678298,63.0452822 134.183167,63.0452822 L134.183167,63.0452822 Z M129.49884,63.0452822 C129.864393,63.0452822 130.28353,62.9391926 130.75744,62.7258214 L130.75744,63.6675154 C130.279958,63.8451261 129.813192,63.9333354 129.357143,63.9333354 C128.605793,63.9333354 128.005665,63.7104281 127.557951,63.2646134 C127.111428,62.8187988 126.887571,62.2204059 126.887571,61.4718188 C126.887571,60.7148875 127.105474,60.1057664 127.54009,59.6420715 C127.974706,59.1783766 128.547447,58.9459332 129.258312,58.9459332 C129.504793,58.9459332 129.72746,58.9697735 129.92393,59.0174542 C130.1204,59.0639429 130.363309,59.1521522 130.652656,59.2808902 L130.652656,60.2952973 C130.171601,59.9889487 129.726269,59.8351784 129.315467,59.8351784 C128.887996,59.8351784 128.53554,59.9865647 128.260481,60.2869531 C127.985423,60.5885336 127.848489,60.9735554 127.848489,61.4396343 C127.848489,61.9319376 127.99733,62.3217274 128.295013,62.6113877 C128.592695,62.899856 128.99397,63.0452822 129.49884,63.0452822 L129.49884,63.0452822 Z M124.014342,60.7554161 L122.837902,58.1103287 L121.746003,60.7554161 L124.014342,60.7554161 Z M122.479492,56.5046808 L123.214172,56.5046808 L126.485104,63.8498942 L125.41583,63.8498942 L124.444195,61.686382 L121.331629,61.686382 L120.419531,63.8498942 L119.346684,63.8498942 L122.479492,56.5046808 Z M114.417066,61.9891545 L117.017618,61.9891545 L117.017618,60.9699793 L114.417066,60.9699793 L114.417066,61.9891545 Z M107.453683,59.8041859 L109.239777,58.0471518 L109.239777,59.0401026 L110.759147,59.0401026 L110.759147,59.8983554 L109.239777,59.8983554 L109.239777,62.2513984 C109.239777,62.8021106 109.468397,63.0762746 109.924446,63.0762746 C110.264994,63.0762746 110.625785,62.963033 111.005628,62.7365496 L111.005628,63.6257948 C110.640074,63.8308219 110.24118,63.9333354 109.808945,63.9333354 C109.374329,63.9333354 109.012347,63.8069815 108.723,63.5518897 C108.632505,63.4756006 108.557489,63.3897753 108.497952,63.2932219 C108.439607,63.1978604 108.389596,63.0715066 108.349111,62.9165443 C108.309817,62.761582 108.289575,62.4659616 108.289575,62.0308751 L108.289575,59.8983554 L107.453683,59.8983554 L107.453683,59.8041859 Z M103.730274,59.0401026 L103.730274,59.6527997 C104.155364,59.1819527 104.637609,58.9459332 105.177009,58.9459332 C105.477073,58.9459332 105.755704,59.0246063 106.012901,59.1795687 C106.270099,59.334531 106.466569,59.5467101 106.599931,59.8172981 C106.734483,60.0866942 106.801164,60.5146285 106.801164,61.0999092 L106.801164,63.8498942 L105.850962,63.8498942 L105.850962,61.1106374 C105.850962,60.6195261 105.775946,60.2678808 105.625914,60.0568937 C105.477073,59.8470986 105.225829,59.741009 104.874564,59.741009 C104.425659,59.741009 104.044626,59.9663004 103.730274,60.415691 L103.730274,63.8498942 L102.75983,63.8498942 L102.75983,59.0401026 L103.730274,59.0401026 Z M98.3934264,60.9592511 L100.811797,60.9592511 C100.786792,60.5789975 100.673672,60.2869531 100.472439,60.0807341 C100.270015,59.875707 99.998529,59.7720015 99.6579805,59.7720015 C99.3162413,59.7720015 99.03642,59.875707 98.8197073,60.0807341 C98.6018039,60.2869531 98.4601072,60.5789975 98.3934264,60.9592511 L98.3934264,60.9592511 Z M101.751282,61.5290356 L98.373184,61.5290356 C98.3969985,61.9891545 98.5517933,62.3551039 98.8351868,62.626884 C99.1185803,62.898664 99.4853248,63.034554 99.9342297,63.034554 C100.560553,63.034554 101.139247,62.8390631 101.667931,62.4492733 L101.667931,63.3790471 C101.376202,63.5745381 101.085665,63.7140041 100.798699,63.7974454 C100.511733,63.8808866 100.174757,63.9237993 99.78777,63.9237993 C99.2590863,63.9237993 98.8304239,63.8129416 98.5029734,63.5936103 C98.1767137,63.3742791 97.9147533,63.0786587 97.7170923,62.7079412 C97.520622,62.3372236 97.4229822,61.9069052 97.4229822,61.41937 C97.4229822,60.6874711 97.6301691,60.0926542 98.0445428,59.6337274 C98.4577257,59.1759926 98.9959352,58.9459332 99.6579805,58.9459332 C100.295021,58.9459332 100.803462,59.1700325 101.182114,59.6158471 C101.561956,60.0616618 101.751282,60.6600547 101.751282,61.4086418 L101.751282,61.5290356 Z M95.3368251,63.8498942 L96.2870268,63.8498942 L96.2870268,59.0401026 L95.3368251,59.0401026 L95.3368251,63.8498942 Z M95.8059723,57.0172485 C95.9631485,57.0172485 96.0965102,57.0720813 96.2084387,57.1793629 C96.3203672,57.2878365 96.3751407,57.4201505 96.3751407,57.5763048 C96.3751407,57.7300751 96.3203672,57.8623891 96.2084387,57.9744387 C96.0965102,58.0852964 95.9631485,58.1413212 95.8059723,58.1413212 C95.6595126,58.1413212 95.5309139,58.0852964 95.4201761,57.9720547 C95.3082476,57.858813 95.2522833,57.726499 95.2522833,57.5763048 C95.2522833,57.4308786 95.3082476,57.3009487 95.4201761,57.187707 C95.5309139,57.0744653 95.6595126,57.0172485 95.8059723,57.0172485 L95.8059723,57.0172485 Z M92.9756095,63.0452822 C93.3411633,63.0452822 93.7602999,62.9391926 94.23421,62.7258214 L94.23421,63.6675154 C93.7567277,63.8451261 93.2911527,63.9333354 92.8351035,63.9333354 C92.0825628,63.9333354 91.4824354,63.7104281 91.035912,63.2646134 C90.5881979,62.8187988 90.3643408,62.2204059 90.3643408,61.4718188 C90.3643408,60.7148875 90.5822442,60.1057664 91.0180511,59.6420715 C91.4526671,59.1783766 92.0254078,58.9459332 92.7350822,58.9459332 C92.9827539,58.9459332 93.2042295,58.9697735 93.4018905,59.0174542 C93.5983608,59.0639429 93.8412695,59.1521522 94.1294259,59.2808902 L94.1294259,60.2952973 C93.6495621,59.9889487 93.2042295,59.8351784 92.793428,59.8351784 C92.3647655,59.8351784 92.0135005,59.9865647 91.7384421,60.2869531 C91.4633837,60.5885336 91.3252591,60.9735554 91.3252591,61.4396343 C91.3252591,61.9319376 91.4741003,62.3217274 91.7717825,62.6113877 C92.0694647,62.899856 92.4707404,63.0452822 92.9756095,63.0452822 L92.9756095,63.0452822 Z M88.3436738,63.8510862 L89.2414834,63.8510862 L89.2414834,59.0305664 L88.3436738,59.0305664 L88.3436738,63.8510862 Z M86.4063577,58.8529558 C86.4063577,58.9077886 86.4099299,58.9673895 86.4170743,59.0305664 L87.4875396,59.0305664 L87.4875396,59.8459066 L86.4170743,59.8459066 L86.4170743,63.8498942 L85.4668725,63.8498942 L85.4668725,59.8459066 L84.7512444,59.8459066 L84.7512444,59.0305664 L85.4668725,59.0305664 L85.4668725,58.8732201 C85.4668725,58.0960245 85.6419097,57.4988236 85.9943655,57.0804254 C86.3456305,56.6620272 86.8469274,56.4534241 87.4982562,56.4534241 C88.030512,56.4534241 88.4520301,56.5893141 88.7616196,56.8610942 C89.0712092,57.1328742 89.2319576,57.5071678 89.2414834,57.9851669 L88.3436738,57.9851669 C88.2496062,57.7300751 88.1352962,57.5488884 87.9995531,57.4404148 C87.86381,57.3331332 87.6863914,57.2783004 87.4661065,57.2783004 C86.7600042,57.2783004 86.4063577,57.8039802 86.4063577,58.8529558 L86.4063577,58.8529558 Z M82.7198608,59.0401026 L82.7198608,58.7528263 C82.7198608,57.9792068 82.8841814,57.4022702 83.2128226,57.0232086 C83.5426545,56.6429549 83.9367858,56.4534241 84.3964072,56.4534241 C84.5940682,56.4534241 84.8298325,56.4844165 85.1013187,56.5464015 L85.1013187,57.4773673 C84.9477147,57.4213425 84.801255,57.3939261 84.6619398,57.3939261 C84.2892416,57.3939261 84.0308534,57.4928636 83.8867752,57.6919305 C83.742697,57.8909975 83.6700625,58.2438347 83.6700625,58.7528263 L83.6700625,59.0401026 L84.5261966,59.0401026 L84.5261966,59.8983554 L83.6700625,59.8983554 L83.6700625,63.8498942 L82.7198608,63.8498942 L82.7198608,59.8983554 L82.0304287,59.8983554 L82.0304287,59.0401026 L82.7198608,59.0401026 Z M77.3925393,56.5464015 L81.5291318,56.5464015 L81.5291318,57.4773673 L78.4379994,57.4773673 L78.4379994,59.7040565 L81.4243477,59.7040565 L81.4243477,60.6397904 L78.4379994,60.6397904 L78.4379994,62.9093922 L81.6279623,62.9093922 L81.6279623,63.839166 L77.3925393,63.839166 L77.3925393,56.5464015 Z M69.902854,60.9592511 L72.3212246,60.9592511 C72.2962193,60.5789975 72.1831,60.2869531 71.9818668,60.0807341 C71.7794429,59.875707 71.5079567,59.7720015 71.1662175,59.7720015 C70.825669,59.7720015 70.5458477,59.875707 70.329135,60.0807341 C70.1112316,60.2869531 69.9695349,60.5789975 69.902854,60.9592511 L69.902854,60.9592511 Z M73.2607098,61.5290356 L69.8826116,61.5290356 C69.9064262,61.9891545 70.0600303,62.3551039 70.3446145,62.626884 C70.628008,62.898664 70.9947525,63.034554 71.4436573,63.034554 C72.0699808,63.034554 72.6474843,62.8390631 73.1773587,62.4492733 L73.1773587,63.3790471 C72.8844394,63.5745381 72.5950923,63.7140041 72.3081266,63.7974454 C72.0199702,63.8808866 71.6841846,63.9237993 71.2971977,63.9237993 C70.768514,63.9237993 70.3398516,63.8129416 70.0124011,63.5936103 C69.6849506,63.3742791 69.4229903,63.0786587 69.22652,62.7079412 C69.0300497,62.3372236 68.9312192,61.9069052 68.9312192,61.41937 C68.9312192,60.6874711 69.138406,60.0926542 69.5527797,59.6337274 C69.9671534,59.1759926 70.5053629,58.9459332 71.1662175,58.9459332 C71.8032575,58.9459332 72.3116988,59.1700325 72.6915413,59.6158471 C73.0713839,60.0616618 73.2607098,60.6600547 73.2607098,61.4086418 L73.2607098,61.5290356 Z M65.2971143,60.6040299 L64.3207166,60.6040299 L64.3207166,62.9201203 L65.3495064,62.9201203 C65.9198656,62.9201203 66.3068525,62.8748236 66.5116579,62.7866143 C66.7152725,62.697213 66.8784024,62.5589389 67.0022382,62.3706001 C67.126074,62.1822613 67.1868012,61.9808103 67.1868012,61.7638631 C67.1868012,61.5409558 67.1225019,61.3371208 66.9915217,61.152358 C66.8605415,60.9675953 66.6759785,60.8305132 66.4354512,60.7399199 C66.194924,60.6493265 65.8150814,60.6040299 65.2971143,60.6040299 L65.2971143,60.6040299 Z M66.5557149,58.528727 C66.5557149,57.8278205 66.1091915,57.4773673 65.2185262,57.4773673 L64.3207166,57.4773673 L64.3207166,59.673064 L65.0149116,59.673064 C65.5721727,59.673064 65.9674947,59.5669744 66.2032591,59.3547953 C66.4378327,59.1414241 66.5557149,58.866068 66.5557149,58.528727 L66.5557149,58.528727 Z M65.7460192,63.8498942 L63.2764473,63.8498942 L63.2764473,56.5464015 L65.1875673,56.5464015 C65.7900761,56.5464015 66.2592233,56.6274587 66.5973904,56.7895731 C66.9343667,56.9516875 67.1927549,57.1757868 67.3701735,57.4594871 C67.5475921,57.7431873 67.6368968,58.0721842 67.6368968,58.4440937 C67.6368968,59.1628804 67.2653893,59.6766401 66.5235652,59.9865647 C67.0570118,60.0878862 67.4809113,60.3072174 67.7952637,60.6457505 C68.1108069,60.9830915 68.2679831,61.3883775 68.2679831,61.8580325 C68.2679831,62.2311341 68.1727248,62.563707 67.9810175,62.8569434 C67.7893101,63.1489877 67.5082981,63.3885833 67.1379813,63.573346 C66.7664739,63.7581088 66.3032803,63.8498942 65.7460192,63.8498942 L65.7460192,63.8498942 Z" id="Fill-1" fill="#FFFFFF"></path>
                            <text id="™" font-family="GillSans, Gill Sans" font-size="6.23219669" font-weight="normal" fill="#FFFFFF">
                                <tspan x="216.187362" y="59.116891">™</tspan>
                            </text>
                            <path d="M24.9535494,49.6452148 L225.024596,49.6452148" id="Stroke-3" stroke="#FFFFFF" stroke-width="0.9"></path>
                            <path d="M0.642793044,1.40521052 C3.83870963,-2.69771454 18.7347292,3.587795 33.915333,15.4531396 C49.0899831,27.312524 58.8051409,40.2566447 55.6068428,44.3559937 L54.4399284,43.1782801 C57.3703124,39.4174642 47.8682952,27.0896167 33.221138,15.6390943 C18.5668364,4.19214799 4.31023831,-2.0432968 1.37866355,1.71751916 L0.642793044,1.40521052 Z" id="Fill-5" fill="#FFFFFF"></path>
                            <g id="Group-27" transform="translate(0.000000, 5.214064)" fill="#FFFFFF">
                                <polygon id="Fill-7" points="61.6871813 8.29632507 47.7687502 5.91824968 8.85572712 34.8509042 12.4517286 44.9008058"></polygon>
                                <polygon id="Fill-9" points="44.9813727 5.4427538 40.9328942 4.74899948 7.08880438 29.914878 8.13069224 32.8400895"></polygon>
                                <polygon id="Fill-11" points="39.0123674 4.42190981 36.316557 3.96059895 5.88866864 26.5874797 6.59000801 28.5316606"></polygon>
                                <polygon id="Fill-13" points="34.4280609 3.64376063 29.9949769 2.88682937 4.26094213 22.0199061 5.40166049 25.2192817"></polygon>
                                <polygon id="Fill-15" points="28.4083305 2.61576454 24.8135197 2.0018754 2.91720447 18.2764936 3.84716381 20.8739002"></polygon>
                                <polygon id="Fill-17" points="23.6310068 1.79827877 22.8046408 1.65523664 2.40269048 16.8236624 2.61583097 17.4244393"></polygon>
                                <polygon id="Fill-19" points="21.2909862 1.397284 18.3046379 0.890676465 1.23553793 13.5785133 2.0107025 15.7360654"></polygon>
                                <polygon id="Fill-21" points="17.3289545 0.723793982 16.4859184 0.579559835 0.765914421 12.2637177 0.981436366 12.8716468"></polygon>
                                <polygon id="Fill-23" points="15.7139688 0.442835401 14.5530081 0.246152474 0.267832488 10.8682225 0.56908692 11.708595"></polygon>
                                <polygon id="Fill-25" points="0.164715358 10.5836879 14.1569716 0.17737305 13.6318601 0.0927397909 0.0301629834 10.2022422"></polygon>
                            </g>
                            <g id="Group-46" transform="translate(0.000000, 1.192018)">
                                <path d="M1.37913985,0.525382224 C-1.55481636,4.28381415 7.94601018,16.6200057 22.6026932,28.0657601 C37.2510411,39.5198585 51.5064485,45.7505352 54.4404047,41.9861432 L55.6061284,43.1638567 C52.413784,47.2703578 37.5141922,40.9753122 22.3300163,29.1135436 C7.15536613,17.2529671 -2.55621944,4.31480661 0.643269336,0.213073576 L1.37913985,0.525382224 Z" id="Fill-28" fill="#FFFFFF"></path>
                                <path d="M16.2556314,49.0207167 L16.1246513,49.0207167 L16.1246513,47.7392976 L16.5164011,47.7392976 C16.7819337,47.7392976 16.9367284,47.8501553 16.9367284,48.0766386 C16.9367284,48.2578253 16.8224184,48.3913313 16.609278,48.4092116 L16.9807854,49.0207167 L16.8224184,49.0207167 L16.4687719,48.4235158 L16.2556314,48.4235158 L16.2556314,49.0207167 Z M16.2556314,48.3066981 L16.4806792,48.3066981 C16.7200157,48.3066981 16.7986039,48.2029925 16.7986039,48.0766386 C16.7986039,47.9586289 16.7200157,47.8608834 16.4806792,47.8608834 L16.2556314,47.8608834 L16.2556314,48.3066981 Z" id="Fill-30" fill="#FFFFFF"></path>
                                <path d="M17.7761924,48.4444953 C17.7761924,49.1585139 17.1986888,49.7354505 16.4854421,49.7354505 C15.7757677,49.7354505 15.1958827,49.1585139 15.1958827,48.4444953 C15.1958827,47.7340527 15.7757677,47.1583082 16.4854421,47.1583082 C17.1986888,47.1583082 17.7761924,47.7340527 17.7761924,48.4444953 L17.7761924,48.4444953 Z" id="Stroke-32" stroke="#FFFFFF" stroke-width="0.083"></path>
                                <path d="M70.4603533,30.6884375 L71.2712398,26.5223355 L74.0504012,26.5223355 C74.6814876,26.5223355 75.4935647,26.5223355 76.0389186,26.823916 C76.6426182,27.160065 76.9426819,27.8633554 76.7902686,28.639359 C76.6723864,29.2758965 76.217528,29.8778654 75.6435966,30.2461989 C74.9767884,30.7170459 74.2147218,30.6884375 73.5098103,30.6884375 L70.4603533,30.6884375 Z M62.9861475,35.8164978 L73.5205268,35.8164978 C75.5959674,35.8164978 78.084591,35.7878894 80.1124025,34.5100463 C81.981847,33.3394849 83.1178024,31.1211399 83.5024079,29.1411985 C84.0322823,26.3888295 82.6165055,24.3731275 80.0600104,23.9070486 L80.0719177,23.8402956 C82.5212472,23.2967355 84.4621354,21.2524251 84.9324734,18.8362051 C85.3004086,16.9599692 84.7598177,15.0765812 83.4262012,13.9703887 C82.1854616,12.9297572 80.4398529,12.7938672 78.6930535,12.7938672 L67.4585256,12.7938672 L62.9861475,35.8164978 Z M72.21906,21.6207585 L72.9727915,17.7288206 L75.7257569,17.7288206 C77.0688992,17.7288206 78.4322839,17.9612641 78.0953076,19.6765776 C77.9905234,20.2117936 77.6464027,20.7839621 77.1320078,21.1844801 C76.5354526,21.6577111 75.7400456,21.6207585 75.0732374,21.6207585 L72.21906,21.6207585 Z" id="Fill-34" fill="#FFFFFF"></path>
                                <path d="M96.3682345,28.1315594 C96.0038714,30.0113714 95.5585388,32.1248189 93.0449099,32.1248189 C92.0054035,32.1248189 91.3933688,31.6563559 91.6088908,30.5513554 C92.0113572,28.4712845 94.7929001,27.969445 96.4349153,27.8025625 L96.3682345,28.1315594 Z M101.84916,35.8164978 C101.582437,34.6149439 101.795577,33.3394849 102.048012,32.0628339 L103.213735,26.0526805 C103.688836,23.601892 104.390176,21.384739 102.445715,19.8100836 C101.004933,18.6037616 98.4734433,18.3319816 96.4575392,18.3319816 C92.6067217,18.3319816 88.3331953,19.4405581 86.4994727,23.7044055 L92.4912209,24.275382 C92.9722755,22.8342326 94.1665766,22.3610016 95.4751878,22.3610016 C97.0874348,22.3610016 97.372019,22.9677386 97.0707646,24.5114016 L97.0481408,24.6437155 C94.7690855,24.7796055 92.4102514,25.0454255 90.1014279,25.7177235 C87.574701,26.4555825 85.1110827,28.2674495 84.5883527,30.9852499 C83.9203537,34.4099169 86.3601574,36.1586069 89.5477389,36.1586069 C91.8982379,36.1586069 93.9534361,35.4171718 95.6740395,33.4360384 C95.518054,34.2406503 95.4311308,35.0500304 95.4430381,35.8164978 L101.84916,35.8164978 Z" id="Fill-36" fill="#FFFFFF"></path>
                                <path d="M111.802106,22.189947 C112.839231,19.8106796 114.403849,18.1323186 117.01869,18.3325776 L117.908165,18.4017146 L116.743632,24.409484 C116.357835,24.3045865 115.935127,24.2402175 115.498129,24.2402175 C114.432427,24.2402175 113.279801,24.4404765 112.555838,25.414355 C111.924751,26.2547275 111.705657,27.364496 111.510378,28.369367 L110.063642,35.8159018 L103.432472,35.8159018 L106.758178,18.6699186 L112.423667,18.6699186 L111.737807,22.189947 L111.802106,22.189947 Z" id="Fill-38" fill="#FFFFFF"></path>
                                <path d="M134.348917,29.3785292 C132.875985,33.8092591 129.27403,36.1587261 124.914771,36.1587261 C122.434483,36.1587261 120.531698,35.5865576 119.067101,33.8092591 C117.66085,32.0629531 117.308394,29.7516307 117.782305,27.2936902 C118.786089,22.1274853 123.073904,18.3321008 128.34288,18.3321008 C132.568777,18.3321008 135.436052,20.8162658 135.103839,25.1158738 L129.14424,25.6153292 L129.14305,25.4484467 C129.134715,24.2755012 129.128761,22.9344813 127.651066,22.9344813 C125.538713,22.9344813 124.999313,25.7166507 124.702821,27.2305132 C124.392041,28.8385452 123.918131,31.4550241 126.094784,31.4550241 C127.533184,31.4550241 128.330973,30.1485726 128.738202,28.9041061 L134.348917,29.3785292 Z" id="Fill-40" fill="#FFFFFF"></path>
                                <path d="M145.868148,22.5300297 C148.149585,22.5300297 147.600659,25.5160341 147.279162,27.1598266 C146.388497,31.759823 145.219201,32.09478 144.011802,32.09478 C142.805593,32.09478 141.763705,31.759823 142.656752,27.1598266 C142.977058,25.5160341 143.585521,22.5300297 145.868148,22.5300297 M146.680225,18.3317432 C141.317182,18.3317432 136.568555,21.8875321 135.504043,27.3970381 C134.490733,32.5966195 137.985522,36.1583685 143.222348,36.1583685 C148.45203,36.1583685 153.335209,32.5966195 154.343757,27.3970381 C155.413032,21.8875321 152.048031,18.3317432 146.680225,18.3317432" id="Fill-42" fill="#FFFFFF"></path>
                                <path d="M165.867513,28.639955 C165.705574,29.4755594 165.654372,30.0834885 165.04591,30.8189634 C164.563665,31.3899399 164.067131,31.6867523 163.39675,31.6867523 C161.320119,31.6867523 161.740446,29.0023284 162.035747,27.4932339 C162.219119,26.558692 162.608488,25.2486645 162.995475,24.3045865 C163.39675,23.2711071 164.048079,22.4962956 165.223329,22.4962956 C165.753203,22.4962956 166.308083,22.729931 166.537893,23.1650175 C166.855818,23.7050016 166.674827,24.5108055 166.545038,25.1795275 L165.867513,28.639955 Z M171.115056,35.8159018 L175.58148,12.7944632 L168.95031,12.7944632 L167.533343,20.0800756 C166.699833,19.0406361 165.424562,18.3325776 163.777784,18.3325776 C158.621927,18.3325776 156.052334,22.9337661 155.191437,27.3311195 C154.373406,31.5568224 155.191437,36.1592029 160.119864,36.1592029 C162.266749,36.1592029 163.851609,35.4177679 165.186416,33.5355718 L165.255478,33.5355718 L164.812527,35.8159018 L171.115056,35.8159018 Z" id="Fill-44" fill="#FFFFFF"></path>
                            </g>
                            <path d="M180.299029,37.0080387 L173.664287,37.0080387 L176.995947,19.8620556 L183.634261,19.8620556 L180.299029,37.0080387 Z M183.945041,18.2146871 L177.31149,18.2146871 L178.200965,13.6516432 L184.838088,13.6516432 L183.945041,18.2146871 Z" id="Fill-47" fill="#FFFFFF"></path>
                            <g id="Group-53" transform="translate(183.149368, 15.719227)" fill="#FFFFFF">
                                <path d="M9.64255144,4.14247085 L9.16387839,6.55869081 L9.22936849,6.55869081 C10.4165253,4.61212584 12.5491209,3.80512983 14.6328966,3.80512983 C16.2379993,3.80512983 17.9931338,4.27478482 18.7397209,5.58838837 C19.5446537,6.9949693 19.1648111,8.94034225 18.8206904,10.7212168 L16.7654922,21.288454 L10.1295596,21.288454 L12.1478452,10.8880992 C12.3526506,9.84508371 12.6324719,8.4063183 11.1869269,8.4063183 C9.34367847,8.4063183 8.86857761,9.98335777 8.5970914,11.3935148 L6.67644555,21.288454 L0.0381314826,21.288454 L3.37336336,4.14247085 L9.64255144,4.14247085 Z" id="Fill-49"></path>
                                <path d="M26.2933483,21.0951087 L29.5452291,21.2596072 C30.3775487,21.2882156 31.536128,21.2250387 31.312271,22.3693757 C31.0098258,23.8808542 28.5676407,23.7163557 27.5674283,23.7163557 C26.4576689,23.7163557 25.3252856,23.6758271 24.2964958,23.4064311 C23.6213525,23.2765012 23.0545655,22.9403522 23.2069788,22.1297801 C23.3998769,21.1249092 24.3203104,21.0593482 25.0942842,21.0593482 L26.2933483,21.0951087 Z M27.4995568,16.0922103 C26.8970479,16.0922103 25.6432103,16.1613473 25.815866,15.2875983 C25.9754237,14.4424577 27.0756572,14.4424577 27.656733,14.4424577 L28.3485465,14.4758342 L29.1141853,14.5104027 C32.5637271,14.5104027 37.1444615,13.5722848 37.9755903,9.27386881 C38.2649375,7.76715839 37.8112697,6.35461737 36.8146296,5.41649941 C37.2659159,4.81214642 38.2149269,4.78115396 38.8174357,4.78115396 L40.4439715,4.85029099 L41.5037203,0.247910497 L41.0750579,0.218110054 L39.1436955,0.114404511 C36.5038493,0.114404511 34.9618553,1.66045152 34.1116748,4.14223245 C33.1186068,3.87402846 32.058858,3.80489143 30.9895834,3.80489143 C27.5007475,3.80489143 22.4270513,4.74539342 21.5637728,9.17731538 C21.1839302,11.1560648 21.9436153,12.4005313 23.5820584,13.1395823 C21.778104,13.7749278 19.9419999,14.9490653 19.555013,16.9278147 C19.3240116,18.1424808 19.8050661,18.9435167 20.6076174,19.6444231 C18.9870353,20.1891752 17.7963063,21.3287442 17.4712373,22.9725367 C16.6960727,27.0003646 23.0926688,27.2018156 25.9468462,27.2018156 C27.9639411,27.2018156 30.6204574,27.1362546 32.5946861,26.4651486 C34.9166076,25.7260976 36.8563051,24.1788586 37.3302152,21.7292622 C37.6445677,20.1164622 37.3028285,18.4404852 36.1847339,17.4677987 C35.1499905,16.5630573 33.6139501,16.3592222 32.1529256,16.2912772 L27.4995568,16.0922103 Z M29.5666623,11.3241393 C28.1877981,11.3241393 27.58648,10.6172728 27.8579662,9.24526039 C28.0973027,8.0031779 28.9712978,7.13062092 30.2465685,7.13062092 C31.6206698,7.13062092 32.1243481,7.96860939 31.8683414,9.27386881 C31.6444843,10.4515823 30.797876,11.3241393 29.5666623,11.3241393 L29.5666623,11.3241393 Z" id="Fill-51"></path>
                            </g>
                            <polygon id="Fill-54" fill="#FFFFFF" points="62.145731 43.0535951 62.9566174 39.4095969 63.3709911 39.4095969 62.5636769 43.0535951"></polygon>
                            <g id="Group-72" transform="translate(72.634468, 39.113589)" fill="#FFFFFF">
                                <path d="M2.38471047,3.53209776 C2.48592243,2.96827337 2.72168677,1.87161705 3.07414255,0.295769604 L3.46708311,0.295769604 L2.65262449,3.93976783 L2.08226531,3.93976783 C1.62383465,2.34127204 1.32734314,1.25534388 1.20469805,0.699863617 L1.18445566,0.699863617 C1.07729005,1.25534388 0.841525711,2.3520002 0.484307017,3.93976783 L0.098510827,3.93976783 L0.907015805,0.295769604 L1.48332863,0.295769604 C1.94175929,1.87280907 2.23944153,2.97184943 2.36446808,3.53209776 L2.38471047,3.53209776 Z" id="Fill-56"></path>
                                <path d="M15.4047365,3.0169077 C15.1308688,3.55212366 14.598613,4.01343453 13.9937227,4.01343453 C13.5984007,4.01343453 13.2792853,3.86681634 13.1209183,3.57000393 C12.9339739,3.26723142 12.8827725,2.8023445 13.0399488,2.10739816 C13.1745011,1.49231701 13.4269357,1.00716579 13.7579583,0.682936965 C14.0663571,0.387316566 14.4366739,0.220434083 14.8439032,0.220434083 C15.4130716,0.220434083 15.7571923,0.541086855 15.7571923,1.15020792 L15.3416279,1.19192854 C15.3297206,0.760418118 15.1761166,0.492214127 14.783176,0.492214127 C14.2902142,0.492214127 13.732953,0.872467786 13.4507503,2.12051036 C13.1721197,3.38524118 13.5602973,3.74403852 14.0496869,3.74403852 C14.5009732,3.74403852 14.840331,3.3125281 15.0046516,2.9632669 L15.4047365,3.0169077 Z" id="Fill-58"></path>
                                <path d="M25.3812593,2.11216623 C25.6801323,0.773530314 26.4803021,0.220434083 27.3519157,0.220434083 C28.2259108,0.220434083 28.7819813,0.773530314 28.484299,2.11812632 C28.1866168,3.4603383 27.3828747,4.01343453 26.5100704,4.01343453 C25.6384567,4.01343453 25.0823863,3.4603383 25.3800686,2.11812632 L25.3812593,2.11216623 Z M27.2899978,0.492214127 C26.7089221,0.492214127 26.0706914,0.927300602 25.8039681,2.11812632 C25.5420077,3.30537599 25.9837681,3.74046246 26.5684161,3.74046246 C27.153064,3.74046246 27.7912947,3.30537599 28.0556366,2.11812632 C28.3211691,0.927300602 27.878218,0.492214127 27.2911886,0.492214127 L27.2899978,0.492214127 Z" id="Fill-60"></path>
                                <path d="M40.4481484,3.94000623 L39.9468515,3.94000623 L39.3086208,2.378463 L38.7882722,2.378463 L38.4429608,3.94000623 L38.0321593,3.94000623 L38.8406643,0.296008008 L39.7456183,0.296008008 C40.5017312,0.296008008 40.9923116,0.542755679 40.8208466,1.3306794 C40.6720055,1.99344127 40.2052397,2.26402929 39.7146594,2.32839825 L40.4481484,3.94000623 Z M39.4324566,2.10906699 C39.9349443,2.10906699 40.2862093,1.8480151 40.40171,1.34021555 C40.5100664,0.837184061 40.3516994,0.566596034 39.6741746,0.566596034 L39.1907386,0.566596034 L38.8454272,2.10906699 L39.4324566,2.10906699 Z" id="Fill-62"></path>
                                <path d="M50.1635443,3.94000623 L50.9744308,0.296008008 L51.8877199,0.296008008 C52.8141071,0.296008008 53.0903562,0.670301577 52.9391336,1.34975169 C52.7676686,2.13052331 52.2437479,2.42971976 51.3530826,2.42971976 L50.90775,2.42971976 L50.5731551,3.94000623 L50.1635443,3.94000623 Z M51.4054747,2.15793971 C52.0532312,2.15793971 52.3949705,1.9350324 52.5223785,1.35213572 C52.6378792,0.824071866 52.4354552,0.566596034 51.8234205,0.566596034 L51.3197422,0.566596034 L50.9684771,2.15793971 L51.4054747,2.15793971 Z" id="Fill-64"></path>
                                <path d="M62.5143807,2.11216623 C62.8132537,0.773530314 63.6169957,0.220434083 64.4874186,0.220434083 C65.3590322,0.220434083 65.9151027,0.773530314 65.6186112,2.11812632 C65.3197382,3.4603383 64.5159961,4.01343453 63.6408103,4.01343453 C62.7727689,4.01343453 62.2178892,3.4603383 62.5143807,2.11812632 L62.5143807,2.11216623 Z M64.4207378,0.492214127 C63.8420435,0.492214127 63.2050035,0.927300602 62.939471,2.11812632 C62.6763198,3.30537599 63.119271,3.74046246 63.7027282,3.74046246 C64.2897576,3.74046246 64.9267976,3.30537599 65.188758,2.11812632 C65.456672,0.927300602 65.0101486,0.492214127 64.4278822,0.492214127 L64.4207378,0.492214127 Z" id="Fill-66"></path>
                                <path d="M77.584723,3.94000623 L77.0858075,3.94000623 L76.4463861,2.378463 L75.9200839,2.378463 L75.5747725,3.94000623 L75.163971,3.94000623 L75.9748574,0.296008008 L76.8786207,0.296008008 C77.6394965,0.296008008 78.1288861,0.542755679 77.953849,1.3306794 C77.8050078,1.99344127 77.3418143,2.26402929 76.8476617,2.32839825 L77.584723,3.94000623 Z M76.5678404,2.10906699 C77.0667559,2.10906699 77.4192117,1.8480151 77.5335216,1.34021555 C77.6442594,0.837184061 77.4847017,0.566596034 76.8083677,0.566596034 L76.3261224,0.566596034 L75.9796203,2.10906699 L76.5678404,2.10906699 Z" id="Fill-68"></path>
                                <path d="M88.053374,2.80508615 L87.4627725,3.93988703 L87.0067233,3.93988703 L89.0035758,0.295888806 L89.5465482,0.295888806 L89.9228185,3.93988703 L89.4643879,3.93988703 L89.3786554,2.80508615 L88.053374,2.80508615 Z M89.2833971,1.54989147 C89.261964,1.22804668 89.2357679,0.921698118 89.2262421,0.566476832 L89.1988553,0.566476832 C89.0321533,0.916930048 88.8714048,1.2363908 88.7094657,1.54869945 L88.2045966,2.52376996 L89.3500779,2.52376996 L89.2833971,1.54989147 Z" id="Fill-70"></path>
                            </g>
                            <g id="Group-77" transform="translate(172.655702, 39.336585)" fill="#FFFFFF">
                                <polygon id="Fill-73" points="2.49437661 0.343837922 1.53464905 0.343837922 0.784489793 3.71724812 0.371306837 3.71724812 1.12146609 0.343837922 0.166501452 0.343837922 0.22722863 0.0732498955 2.55510379 0.0732498955"></polygon>
                                <polygon id="Fill-75" points="13.5631551 1.679613 13.5071908 1.95139304 12.3759983 1.95139304 12.0425942 3.44499127 13.523861 3.44499127 13.4643246 3.71677131 11.5710655 3.71677131 12.3831427 0.0727730884 14.2299633 0.0727730884 14.1680454 0.343361115 12.733217 0.343361115 12.4367255 1.679613"></polygon>
                            </g>
                            <path d="M196.153109,43.0535951 L196.963996,39.4095969 L198.030889,39.4095969 C199.19185,39.4095969 199.61694,39.9626931 199.338309,41.2214638 C199.068014,42.4301698 198.430974,43.0535951 197.229528,43.0535951 L196.153109,43.0535951 Z M197.274776,42.7722789 C198.132101,42.7722789 198.664357,42.3026239 198.903693,41.2262319 C199.132313,40.2046727 198.862018,39.6837609 197.955873,39.6837609 L197.33074,39.6837609 L196.642499,42.7722789 L197.274776,42.7722789 Z" id="Fill-78" fill="#FFFFFF"></path>
                        </g>
                    </g>
                </g>
            </g>
        </g>
    </g>
</svg>